<?xml version="1.0" standalone="no"?>
<!DOCTYPE svg PUBLIC "-//W3C//DTD SVG 20010904//EN"
 "http://www.w3.org/TR/2001/REC-SVG-20010904/DTD/svg10.dtd">
<svg version="1.0" xmlns="http://www.w3.org/2000/svg"
 width="718.000000pt" height="399.000000pt" viewBox="0 0 718.000000 399.000000"
 preserveAspectRatio="xMidYMid meet">

<g transform="translate(0.000000,399.000000) scale(0.100000,-0.100000)"
fill="#000000" stroke="none">
<path d="M2753 3850 c-3 -11 -10 -20 -15 -20 -7 0 -7 -4 0 -13 6 -7 12 -30 15
-52 l4 -40 1 42 c1 28 8 45 20 52 16 10 16 10 0 11 -10 0 -18 4 -18 10 0 5 8
14 18 19 16 10 16 10 -1 11 -11 0 -21 -9 -24 -20z"/>
<path d="M3203 3800 c0 -41 2 -58 4 -37 2 20 2 54 0 75 -2 20 -4 3 -4 -38z"/>
<path d="M4803 3850 c-3 -11 -10 -20 -15 -20 -7 0 -7 -4 0 -13 6 -7 12 -30 15
-52 l4 -40 1 42 c1 28 8 45 20 52 16 10 16 10 0 11 -10 0 -18 4 -18 10 0 5 8
14 18 19 16 10 16 10 -1 11 -11 0 -21 -9 -24 -20z"/>
<path d="M6041 3852 c10 -15 7 -27 -16 -66 -15 -26 -25 -49 -22 -52 3 -3 13 8
23 25 23 39 34 39 34 1 0 -16 5 -30 10 -30 12 0 12 0 -1 77 -7 42 -16 63 -25
63 -11 0 -12 -4 -3 -18z"/>
<path d="M1617 3842 c-49 -54 15 -142 73 -101 12 8 10 10 -9 5 -38 -8 -61 10
-61 49 0 39 23 57 61 49 19 -5 21 -3 9 5 -23 16 -55 13 -73 -7z"/>
<path d="M2870 3795 l0 -65 30 0 c37 0 70 31 70 65 0 34 -33 65 -70 65 l-30 0
0 -65z m61 45 c13 -7 19 -21 19 -45 0 -35 -20 -55 -54 -55 -13 0 -16 12 -16
55 0 59 9 67 51 45z"/>
<path d="M3302 3798 l-2 -68 38 1 c36 1 36 2 7 8 -28 6 -30 9 -36 66 l-6 60
-1 -67z"/>
<path d="M3502 3793 c0 -37 3 -53 5 -35 5 41 28 42 51 2 20 -34 39 -42 20 -7
-6 12 -12 40 -12 62 -1 38 -3 40 -33 43 l-33 3 2 -68z m48 42 c15 -18 5 -35
-21 -35 -14 0 -19 7 -19 25 0 28 21 33 40 10z"/>
<path d="M3612 3793 c0 -37 3 -53 5 -35 5 41 28 42 51 2 20 -34 39 -42 20 -7
-6 12 -12 40 -12 62 -1 38 -3 40 -33 43 l-33 3 2 -68z m48 42 c15 -18 5 -35
-21 -35 -14 0 -19 7 -19 25 0 28 21 33 40 10z"/>
<path d="M3732 3793 c0 -37 3 -53 5 -35 5 41 28 42 51 2 20 -34 39 -42 20 -7
-6 12 -12 40 -12 62 -1 38 -3 40 -33 43 l-33 3 2 -68z m48 42 c15 -18 5 -35
-21 -35 -14 0 -19 7 -19 25 0 28 21 33 40 10z"/>
<path d="M3891 3848 c0 -10 -6 -18 -12 -18 -8 0 -8 -4 -1 -13 6 -6 12 -28 14
-47 2 -26 8 -36 23 -38 18 -2 18 -2 3 8 -12 7 -18 23 -18 45 0 24 5 35 18 38
15 4 15 5 0 6 -9 0 -19 9 -21 19 -4 16 -5 16 -6 0z"/>
<path d="M4108 3853 c20 -4 22 -10 22 -64 0 -33 4 -59 10 -59 6 0 10 26 10 59
0 54 2 60 23 64 12 2 -3 4 -33 4 -30 0 -45 -2 -32 -4z"/>
<path d="M4227 3842 c-22 -25 -21 -75 1 -95 40 -36 92 -7 92 50 0 54 -59 83
-93 45z m73 -47 c0 -23 -6 -38 -18 -44 -28 -15 -52 5 -52 44 0 39 24 59 52 44
12 -6 18 -21 18 -44z"/>
<path d="M4402 3793 c0 -37 3 -53 5 -35 5 41 28 42 51 2 20 -34 39 -42 20 -7
-6 12 -12 40 -12 62 -1 38 -3 40 -33 43 l-33 3 2 -68z m48 42 c15 -18 5 -35
-21 -35 -14 0 -19 7 -19 25 0 28 21 33 40 10z"/>
<path d="M4522 3793 c0 -37 3 -53 5 -35 5 41 28 42 51 2 20 -34 39 -42 20 -7
-6 12 -12 40 -12 62 -1 38 -3 40 -33 43 l-33 3 2 -68z m48 42 c15 -18 5 -35
-21 -35 -14 0 -19 7 -19 25 0 28 21 33 40 10z"/>
<path d="M4632 3793 c0 -37 3 -53 5 -35 5 41 28 42 51 2 20 -34 39 -42 20 -7
-6 12 -12 40 -12 62 -1 38 -3 40 -33 43 l-33 3 2 -68z m48 42 c15 -18 5 -35
-21 -35 -14 0 -19 7 -19 25 0 28 21 33 40 10z"/>
<path d="M5271 3848 c0 -10 -6 -18 -12 -18 -8 0 -8 -4 -1 -13 6 -6 12 -28 14
-47 2 -26 8 -36 23 -38 18 -2 18 -2 3 8 -12 7 -18 23 -18 45 0 24 5 35 18 38
15 4 15 5 0 6 -9 0 -19 9 -21 19 -4 16 -5 16 -6 0z"/>
<path d="M5641 3848 c0 -10 -6 -18 -12 -18 -8 0 -8 -4 -1 -13 6 -6 12 -28 14
-47 2 -26 8 -36 23 -38 18 -2 18 -2 3 8 -12 7 -18 23 -18 45 0 24 5 35 18 38
15 4 15 5 0 6 -9 0 -19 9 -21 19 -4 16 -5 16 -6 0z"/>
<path d="M6115 3849 c-4 -6 4 -9 22 -7 41 4 43 -29 3 -67 -16 -16 -30 -32 -30
-37 0 -4 19 -7 43 -7 29 2 34 3 15 6 -34 5 -34 8 -3 45 28 33 31 48 13 66 -15
15 -55 16 -63 1z"/>
<path d="M1721 3816 c-31 -37 9 -103 47 -80 36 23 23 94 -18 94 -10 0 -23 -6
-29 -14z m49 -16 c8 -14 8 -26 0 -41 -14 -25 -34 -20 -38 10 -7 47 18 68 38
31z"/>
<path d="M1810 3778 c0 -26 5 -48 10 -48 6 0 10 15 10 34 0 33 20 62 33 49 4
-3 7 -24 7 -45 0 -21 5 -38 10 -38 12 0 13 69 2 87 -4 6 -22 11 -40 11 -32 -1
-32 -2 -32 -50z"/>
<path d="M1895 3819 c-4 -6 0 -9 11 -7 16 2 20 -5 22 -39 2 -24 7 -43 13 -43
13 0 11 74 -3 88 -15 15 -35 15 -43 1z"/>
<path d="M1970 3758 c0 -39 4 -68 10 -68 6 0 10 11 10 24 0 19 4 22 25 18 20
-3 27 1 35 22 6 16 6 35 0 51 -8 20 -16 24 -45 23 l-35 -1 0 -69z m70 23 c0
-26 -21 -43 -37 -30 -16 14 -17 41 -1 57 14 14 38 -2 38 -27z"/>
<path d="M2090 3820 c0 -6 6 -10 13 -9 23 3 37 -1 37 -10 0 -5 -12 -11 -27
-13 -22 -2 -28 -8 -28 -28 0 -22 5 -25 38 -27 35 -1 37 1 37 29 0 43 -17 68
-45 68 -14 0 -25 -5 -25 -10z m50 -54 c0 -17 -27 -29 -35 -16 -4 6 -3 15 0 20
9 15 35 12 35 -4z"/>
<path d="M2180 3778 c0 -26 5 -48 10 -48 6 0 10 15 10 34 0 24 7 39 21 50 21
14 21 15 -10 14 -30 -1 -31 -2 -31 -50z"/>
<path d="M2263 3780 c0 -30 2 -43 4 -27 2 15 2 39 0 55 -2 15 -4 2 -4 -28z"/>
<path d="M2303 3814 c-6 -16 13 -38 40 -47 6 -2 7 -9 3 -15 -4 -7 -16 -10 -27
-7 -11 4 -19 2 -19 -4 0 -16 46 -13 60 4 10 12 10 18 0 30 -7 8 -19 15 -27 15
-8 0 -13 6 -10 13 2 6 12 11 21 11 9 -1 16 2 16 7 0 16 -50 9 -57 -7z"/>
<path d="M2391 3816 c-31 -37 9 -103 47 -80 36 23 23 94 -18 94 -10 0 -23 -6
-29 -14z m49 -16 c8 -14 8 -26 0 -41 -14 -25 -34 -20 -38 10 -7 47 18 68 38
31z"/>
<path d="M2490 3779 c0 -27 5 -49 10 -49 6 0 10 15 10 34 0 39 21 64 38 44 6
-7 12 -29 15 -48 3 -23 4 -18 3 15 l-1 50 -37 2 -38 1 0 -49z"/>
<path d="M2651 3816 c-31 -37 9 -103 47 -80 36 23 23 94 -18 94 -10 0 -23 -6
-29 -14z m49 -16 c8 -14 8 -26 0 -41 -14 -25 -34 -20 -38 10 -7 47 18 68 38
31z"/>
<path d="M2980 3799 c0 -47 16 -68 50 -67 29 1 30 3 30 50 0 59 -18 64 -22 6
-2 -30 -8 -43 -18 -43 -10 0 -16 13 -18 43 -4 48 -22 58 -22 11z"/>
<path d="M3100 3820 c0 -6 6 -10 13 -9 23 3 37 -1 37 -10 0 -5 -12 -11 -27
-13 -22 -2 -28 -8 -28 -28 0 -22 5 -25 38 -27 35 -1 37 1 37 29 0 43 -17 68
-45 68 -14 0 -25 -5 -25 -10z m50 -54 c0 -17 -27 -29 -35 -16 -4 6 -3 15 0 20
9 15 35 12 35 -4z"/>
<path d="M3390 3820 c0 -6 6 -10 13 -9 23 3 37 -1 37 -10 0 -5 -12 -11 -27
-13 -22 -2 -28 -8 -28 -28 0 -22 5 -25 38 -27 35 -1 37 1 37 29 0 43 -17 68
-45 68 -14 0 -25 -5 -25 -10z m50 -54 c0 -17 -27 -29 -35 -16 -4 6 -3 15 0 20
9 15 35 12 35 -4z"/>
<path d="M3961 3816 c-31 -37 9 -103 47 -80 36 23 23 94 -18 94 -10 0 -23 -6
-29 -14z m49 -16 c8 -14 8 -26 0 -41 -14 -25 -34 -20 -38 10 -7 47 18 68 38
31z"/>
<path d="M4861 3816 c-31 -37 9 -103 47 -80 36 23 23 94 -18 94 -10 0 -23 -6
-29 -14z m49 -16 c8 -14 8 -26 0 -41 -14 -25 -34 -20 -38 10 -7 47 18 68 38
31z"/>
<path d="M4950 3778 c0 -26 5 -48 10 -48 6 0 10 15 10 34 0 24 7 39 21 50 21
14 21 15 -10 14 -30 -1 -31 -2 -31 -50z"/>
<path d="M5082 3818 c-7 -7 -12 -24 -12 -38 0 -14 5 -31 12 -38 15 -15 55 -16
64 0 5 8 2 9 -9 5 -22 -8 -47 2 -47 19 0 9 11 14 30 14 18 0 30 5 30 13 0 18
-21 37 -40 37 -9 0 -21 -5 -28 -12z m48 -13 c11 -13 8 -15 -14 -15 -25 0 -33
10 -19 23 10 11 19 8 33 -8z"/>
<path d="M5173 3814 c-6 -16 13 -38 40 -47 6 -2 7 -9 3 -15 -4 -7 -16 -10 -27
-7 -11 4 -19 2 -19 -4 0 -16 46 -13 60 4 10 12 10 18 0 30 -7 8 -19 15 -27 15
-8 0 -13 6 -10 13 2 6 12 11 21 11 9 -1 16 2 16 7 0 16 -50 9 -57 -7z"/>
<path d="M5333 3780 c0 -30 2 -43 4 -27 2 15 2 39 0 55 -2 15 -4 2 -4 -28z"/>
<path d="M5370 3778 c0 -26 5 -48 10 -48 6 0 10 15 10 34 0 33 20 62 33 49 4
-3 7 -24 7 -45 0 -21 5 -38 10 -38 12 0 13 69 2 87 -4 6 -22 11 -40 11 -32 -1
-32 -2 -32 -50z"/>
<path d="M5455 3819 c-4 -6 0 -9 11 -7 16 2 20 -5 22 -39 2 -24 7 -43 13 -43
13 0 11 74 -3 88 -15 15 -35 15 -43 1z"/>
<path d="M5540 3820 c0 -6 6 -10 13 -9 23 3 37 -1 37 -10 0 -5 -12 -11 -27
-13 -22 -2 -28 -8 -28 -28 0 -22 5 -25 38 -27 35 -1 37 1 37 29 0 43 -17 68
-45 68 -14 0 -25 -5 -25 -10z m50 -54 c0 -17 -27 -29 -35 -16 -4 6 -3 15 0 20
9 15 35 12 35 -4z"/>
<path d="M5713 3780 c0 -30 2 -43 4 -27 2 15 2 39 0 55 -2 15 -4 2 -4 -28z"/>
<path d="M5750 3779 c0 -27 5 -49 10 -49 6 0 10 15 10 34 0 39 21 64 38 44 6
-7 12 -29 15 -48 3 -23 4 -18 3 15 l-1 50 -37 2 -38 1 0 -49z"/>
<path d="M5861 3817 c-28 -28 -1 -97 34 -83 9 3 15 0 15 -9 0 -14 -11 -19 -37
-16 -7 1 -13 -3 -13 -9 0 -14 43 -13 58 2 7 7 12 37 12 68 0 56 -1 57 -29 58
-15 0 -33 -4 -40 -11z m44 -38 c0 -24 -5 -34 -15 -34 -16 0 -25 37 -16 62 10
26 31 8 31 -28z"/>
<path d="M406 3682 c-3 -6 2 -8 13 -5 31 8 35 -17 7 -46 -34 -35 -33 -41 7
-40 25 1 27 3 9 6 l-24 5 22 23 c12 13 20 31 18 42 -3 19 -42 30 -52 15z"/>
<path d="M542 3678 c-17 -17 -15 -63 4 -79 22 -18 48 0 52 35 6 45 -29 71 -56
44z m38 -18 c11 -21 -2 -60 -20 -60 -13 0 -22 37 -15 60 3 11 10 20 15 20 5 0
14 -9 20 -20z"/>
<path d="M624 3665 c-10 -39 3 -75 26 -75 29 0 47 42 32 75 -7 15 -20 25 -32
25 -13 0 -22 -9 -26 -25z m41 -26 c0 -24 -5 -34 -15 -34 -16 0 -25 37 -16 62
10 26 31 8 31 -28z"/>
<path d="M763 3643 l27 -4 0 -184 0 -184 -27 -4 -28 -4 28 -2 27 -1 0 -189 0
-190 -27 -4 -28 -4 28 -2 27 -1 0 -184 0 -185 -27 -4 -28 -4 28 -2 27 -1 0
-189 0 -190 -27 -4 -28 -4 28 -2 27 -1 0 -184 0 -185 -27 -4 -28 -4 28 -2 27
-1 0 -189 0 -190 -27 -4 -28 -4 28 -2 27 -1 0 -184 0 -185 -27 -4 -28 -4 28
-2 27 -1 0 -189 0 -190 -27 -4 c-16 -2 85 -5 224 -6 l252 -1 4 -27 4 -28 2 28
1 27 394 0 395 0 4 -27 4 -28 2 28 1 27 399 0 400 0 4 -27 4 -28 2 28 1 27
394 0 395 0 4 -28 4 -27 2 28 1 27 399 0 400 0 4 -27 4 -28 2 28 1 27 394 0
395 0 4 -27 4 -28 2 28 1 27 399 0 400 0 4 -27 4 -28 2 28 1 27 399 0 400 0 4
-27 4 -28 2 28 c1 26 3 27 56 27 l55 0 0 1545 0 1545 -3132 -1 c-1723 -1
-3121 -4 -3105 -6z m6227 -1538 l0 -1535 -3095 0 -3095 0 0 1535 0 1535 3095
0 3095 0 0 -1535z"/>
<path d="M3820 3416 l0 -165 -27 -4 -28 -4 28 -2 27 -1 0 -184 0 -185 -27 -4
-28 -4 28 -2 27 -1 0 -184 0 -185 -27 -4 -28 -4 28 -2 27 -1 0 -184 0 -185
-27 -4 -28 -4 28 -2 c24 -1 27 -5 27 -36 l0 -35 214 0 215 0 4 -27 4 -28 2 28
1 27 554 0 555 0 4 -27 4 -28 2 28 1 27 559 0 560 0 4 -27 4 -28 2 28 1 27
210 0 210 0 0 775 0 775 -1555 0 -1555 0 0 -164z m3100 -611 l0 -765 -1545 0
-1545 0 0 765 0 765 1545 0 1545 0 0 -765z"/>
<path d="M4250 3095 l0 -415 50 0 c45 0 51 3 65 31 9 17 14 33 12 35 -2 3 -10
-9 -17 -26 -11 -27 -17 -30 -56 -30 l-44 0 0 200 0 200 40 0 c22 0 40 5 40 10
0 6 -18 10 -40 10 l-40 0 0 195 0 195 39 0 c34 0 40 -4 51 -30 7 -17 17 -33
22 -36 5 -3 0 12 -11 35 -20 39 -24 41 -66 41 l-45 0 0 -415z"/>
<path d="M4385 3410 c5 -8 24 -36 43 -63 18 -26 47 -71 63 -100 16 -28 29 -48
29 -44 0 15 -32 71 -78 137 -46 66 -72 98 -57 70z"/>
<path d="M4522 3170 c0 -14 2 -19 5 -12 2 6 2 18 0 25 -3 6 -5 1 -5 -13z"/>
<path d="M4514 3089 c-6 -24 -14 -53 -18 -64 -3 -11 3 -1 14 23 12 24 20 53
18 64 -2 15 -7 7 -14 -23z"/>
<path d="M4457 2944 c-37 -74 -33 -83 4 -10 17 32 29 60 27 62 -2 2 -16 -21
-31 -52z"/>
<path d="M4401 2819 c-12 -29 -20 -54 -18 -56 2 -2 14 20 26 48 12 29 20 54
18 56 -2 2 -14 -20 -26 -48z"/>
<path d="M5377 2573 c-4 -38 -7 -137 -7 -220 l0 -153 100 0 100 0 45 41 c45
42 56 75 36 108 -6 10 -8 1 -4 -25 5 -37 2 -43 -36 -77 -41 -37 -41 -37 -131
-37 l-90 0 0 75 0 75 40 0 c22 0 40 5 40 10 0 6 -18 10 -40 10 l-40 0 0 125 0
125 49 0 c47 0 51 -3 100 -56 28 -30 51 -53 51 -49 0 3 -23 31 -51 61 -50 52
-54 54 -104 54 l-52 0 -6 -67z"/>
<path d="M5601 2464 c0 -11 3 -14 6 -6 3 7 2 16 -1 19 -3 4 -6 -2 -5 -13z"/>
<path d="M5611 2430 c0 -14 28 -72 29 -59 0 4 -7 22 -15 40 -8 19 -14 27 -14
19z"/>
<path d="M6670 2305 c46 -18 64 -17 25 0 -16 8 -37 14 -45 14 -8 0 1 -7 20
-14z"/>
<path d="M6753 2274 c15 -8 27 -18 27 -22 0 -11 -43 -51 -103 -96 -42 -31 -56
-36 -103 -36 l-54 0 0 55 0 55 40 0 c22 0 40 5 40 10 0 11 -59 14 -84 4 -12
-5 -16 -21 -16 -70 l0 -64 64 0 c60 0 68 3 123 44 32 24 69 56 83 71 l25 27
-24 19 c-13 10 -28 19 -35 19 -6 -1 1 -8 17 -16z"/>
<path d="M4150 2250 c0 -5 18 -10 40 -10 22 0 40 5 40 10 0 6 -18 10 -40 10
-22 0 -40 -4 -40 -10z"/>
<path d="M5280 2190 c0 -5 18 -10 40 -10 22 0 40 5 40 10 0 6 -18 10 -40 10
-22 0 -40 -4 -40 -10z"/>
<path d="M6400 2160 c0 -5 18 -10 40 -10 22 0 40 5 40 10 0 6 -18 10 -40 10
-22 0 -40 -4 -40 -10z"/>
<path d="M1320 3460 c0 -27 5 -50 10 -50 6 0 10 23 10 50 0 28 -4 50 -10 50
-5 0 -10 -22 -10 -50z"/>
<path d="M1361 3496 c-16 -19 -10 -66 10 -79 9 -5 28 -7 42 -3 20 5 27 13 27
31 0 19 -5 25 -22 24 -13 0 -17 -3 -10 -6 6 -2 12 -14 12 -25 0 -14 -6 -19
-21 -16 -52 8 -48 73 4 73 14 -1 23 3 21 7 -8 13 -51 9 -63 -6z"/>
<path d="M910 3470 c0 -6 57 -10 150 -10 93 0 150 4 150 10 0 6 -57 10 -150
10 -93 0 -150 -4 -150 -10z"/>
<path d="M1327 3293 c18 -4 23 -12 26 -51 l3 -47 2 47 c2 40 5 47 25 51 12 2
0 4 -28 4 -27 0 -40 -2 -28 -4z"/>
<path d="M3530 3279 c0 -5 5 -7 10 -4 6 4 10 -10 10 -34 0 -22 -5 -42 -12 -44
-7 -3 3 -5 22 -5 19 0 27 2 18 5 -14 3 -18 15 -18 49 0 32 -4 44 -15 44 -8 0
-15 -5 -15 -11z"/>
<path d="M3650 3271 c0 -10 9 -21 20 -24 27 -7 25 -35 -2 -47 -23 -9 -23 -9
-2 -9 45 -2 57 55 14 66 -27 7 -25 21 3 26 19 4 18 4 -5 6 -21 1 -28 -4 -28
-18z"/>
<path d="M1390 3265 c-26 -31 13 -82 44 -56 19 16 21 42 4 59 -16 16 -33 15
-48 -3z m35 -25 c0 -27 -22 -39 -31 -16 -8 22 3 49 19 43 6 -2 12 -14 12 -27z"/>
<path d="M910 3260 c0 -6 57 -10 150 -10 93 0 150 4 150 10 0 6 -57 10 -150
10 -93 0 -150 -4 -150 -10z"/>
<path d="M3600 3200 c0 -5 5 -10 10 -10 6 0 10 5 10 10 0 6 -4 10 -10 10 -5 0
-10 -4 -10 -10z"/>
<path d="M3530 2899 c0 -5 5 -7 10 -4 6 4 10 -10 10 -34 0 -22 -5 -42 -12 -44
-7 -3 3 -5 22 -5 19 0 27 2 18 5 -14 3 -18 15 -18 49 0 32 -4 44 -15 44 -8 0
-15 -5 -15 -11z"/>
<path d="M3652 2898 c-17 -17 -15 -63 4 -79 22 -18 48 0 52 35 6 45 -29 71
-56 44z m43 -18 c7 -23 -2 -60 -15 -60 -5 0 -14 9 -20 20 -11 21 2 60 20 60 5
0 12 -9 15 -20z"/>
<path d="M3600 2820 c0 -5 5 -10 10 -10 6 0 10 5 10 10 0 6 -4 10 -10 10 -5 0
-10 -4 -10 -10z"/>
<path d="M1070 2580 c0 -5 360 -190 800 -410 800 -400 800 -400 1208 -560
l407 -160 400 -90 c366 -82 432 -100 775 -214 352 -116 372 -124 330 -130 -73
-9 -573 -44 -1025 -72 -260 -15 -572 -27 -820 -30 -337 -5 -468 -11 -830 -41
l-430 -35 -365 11 c-425 13 -456 13 -447 4 4 -4 184 -12 400 -19 l392 -12 405
33 c327 27 483 35 805 40 413 7 717 22 1540 76 l480 32 405 -112 406 -111 364
35 c201 19 384 35 408 37 27 1 42 7 42 15 0 7 -1 13 -2 13 -2 0 -185 -18 -407
-39 l-404 -39 -356 99 c-247 68 -343 98 -314 98 23 1 178 -4 345 -10 310 -11
353 -9 898 31 74 6 159 11 187 13 36 1 53 6 53 15 0 10 -10 12 -37 8 -37 -6
-246 -22 -593 -47 -127 -9 -258 -9 -570 0 l-405 12 -410 134 c-379 124 -441
141 -812 224 l-403 90 -402 157 -403 158 -805 403 c-442 222 -806 403 -807
403 -2 0 -3 -4 -3 -10z"/>
<path d="M3542 2518 c-26 -26 -8 -88 25 -88 23 0 38 46 25 75 -13 27 -31 32
-50 13z m33 -38 c0 -38 -20 -52 -30 -21 -8 27 3 63 18 58 7 -2 12 -19 12 -37z"/>
<path d="M3660 2511 c0 -11 9 -21 21 -24 28 -8 21 -39 -11 -48 l-25 -7 26 -1
c49 -2 65 54 19 66 -27 7 -25 21 3 26 19 4 18 4 -5 6 -21 1 -28 -4 -28 -18z"/>
<path d="M3610 2440 c0 -5 5 -10 10 -10 6 0 10 5 10 10 0 6 -4 10 -10 10 -5 0
-10 -4 -10 -10z"/>
<path d="M3542 2138 c-26 -26 -8 -88 25 -88 23 0 38 46 25 75 -13 27 -31 32
-50 13z m33 -38 c0 -38 -20 -52 -30 -21 -8 27 3 63 18 58 7 -2 12 -19 12 -37z"/>
<path d="M3662 2138 c-17 -17 -15 -63 4 -79 22 -18 48 0 52 35 6 45 -29 71
-56 44z m38 -18 c11 -21 -2 -60 -20 -60 -13 0 -22 37 -15 60 3 11 10 20 15 20
5 0 14 -9 20 -20z"/>
<path d="M3610 2060 c0 -5 5 -10 10 -10 6 0 10 5 10 10 0 6 -4 10 -10 10 -5 0
-10 -4 -10 -10z"/>
<path d="M4210 1920 c12 -8 12 -14 -5 -47 -29 -57 -29 -61 -1 -28 l25 30 1
-27 c0 -16 5 -28 11 -28 6 0 8 8 5 18 -3 9 -8 34 -12 55 -4 25 -11 37 -23 37
-14 0 -14 -2 -1 -10z"/>
<path d="M5330 1920 c12 -8 12 -14 -5 -47 -29 -57 -29 -61 -1 -28 l25 30 1
-27 c0 -16 5 -28 11 -28 6 0 8 8 5 18 -3 9 -8 34 -12 55 -4 25 -11 37 -23 37
-14 0 -14 -2 -1 -10z"/>
<path d="M6460 1920 c12 -8 12 -14 -5 -47 -29 -57 -29 -61 -1 -28 l25 30 1
-27 c0 -16 5 -28 11 -28 6 0 8 8 5 18 -3 9 -8 34 -12 55 -4 25 -11 37 -23 37
-14 0 -14 -2 -1 -10z"/>
<path d="M4283 1873 c21 -6 22 -26 2 -43 -22 -18 -18 -30 8 -30 17 0 19 2 8 9
-12 8 -12 12 -2 25 17 20 7 46 -16 45 -17 -1 -17 -2 0 -6z"/>
<path d="M5403 1874 c20 -6 22 -20 5 -27 -10 -4 -10 -6 0 -6 6 -1 12 -7 12
-15 0 -8 -6 -16 -12 -19 -8 -2 -7 -3 2 -3 10 1 15 12 15 36 0 27 -4 35 -20 37
-16 1 -16 1 -2 -3z"/>
<path d="M6525 1850 c-15 -28 -14 -30 4 -30 11 0 22 -6 24 -12 3 -7 6 6 6 30
1 49 -12 54 -34 12z m21 -17 c-10 -10 -19 5 -10 18 6 11 8 11 12 0 2 -7 1 -15
-2 -18z"/>
<path d="M490 3600 c0 -5 5 -10 10 -10 6 0 10 5 10 10 0 6 -4 10 -10 10 -5 0
-10 -4 -10 -10z"/>
<path d="M410 3299 c0 -5 5 -7 10 -4 6 4 10 -10 10 -34 0 -22 -5 -42 -12 -44
-7 -3 3 -5 22 -5 19 0 27 2 18 5 -14 3 -18 15 -18 49 0 32 -4 44 -15 44 -8 0
-15 -5 -15 -11z"/>
<path d="M543 3303 c32 -5 31 -3 12 -50 -8 -20 -13 -38 -10 -41 4 -4 45 81 45
94 0 2 -17 3 -37 3 -31 -2 -33 -3 -10 -6z"/>
<path d="M610 3291 c0 -13 8 -21 23 -23 14 -2 22 -10 22 -23 0 -14 -6 -20 -22
-19 -13 0 -23 -3 -23 -8 0 -15 49 -8 59 9 11 21 -3 53 -24 53 -24 0 -17 18 8
23 16 3 13 5 -10 6 -26 1 -33 -3 -33 -18z"/>
<path d="M480 3220 c0 -5 5 -10 10 -10 6 0 10 5 10 10 0 6 -4 10 -10 10 -5 0
-10 -4 -10 -10z"/>
<path d="M183 3043 c20 -2 54 -2 75 0 20 2 3 4 -38 4 -41 0 -58 -2 -37 -4z"/>
<path d="M203 2985 c-3 -9 -3 -19 1 -22 3 -4 6 1 6 10 0 21 23 22 40 2 18 -22
30 -18 29 8 0 19 -1 20 -8 4 -6 -17 -8 -17 -20 -3 -17 20 -40 21 -48 1z"/>
<path d="M198 2928 c-34 -7 -48 -15 -48 -27 0 -14 2 -14 10 -1 8 12 14 12 47
-5 57 -29 61 -29 28 -1 l-30 25 28 1 c15 0 27 5 27 10 0 6 -3 9 -7 9 -5 -1
-29 -6 -55 -11z"/>
<path d="M410 2909 c0 -5 5 -7 10 -4 6 4 10 -10 10 -34 0 -22 -5 -42 -12 -44
-7 -3 3 -5 22 -5 19 0 27 2 18 5 -14 3 -18 15 -18 49 0 32 -4 44 -15 44 -8 0
-15 -5 -15 -11z"/>
<path d="M530 2901 c0 -10 9 -21 20 -24 27 -7 25 -35 -2 -47 -23 -9 -23 -9 -2
-9 45 -2 57 55 14 66 -27 7 -25 21 3 26 19 4 18 4 -5 6 -21 1 -28 -4 -28 -18z"/>
<path d="M622 2908 c-26 -26 -8 -88 25 -88 23 0 38 46 25 75 -13 27 -31 32
-50 13z m33 -38 c0 -38 -20 -52 -30 -21 -8 27 3 63 18 58 7 -2 12 -19 12 -37z"/>
<path d="M183 2843 c20 -2 54 -2 75 0 20 2 3 4 -38 4 -41 0 -58 -2 -37 -4z"/>
<path d="M480 2830 c0 -5 5 -10 10 -10 6 0 10 5 10 10 0 6 -4 10 -10 10 -5 0
-10 -4 -10 -10z"/>
<path d="M160 2791 c0 -4 25 -15 56 -23 31 -9 52 -12 47 -8 -14 12 -103 39
-103 31z"/>
<path d="M183 2703 c20 -2 54 -2 75 0 20 2 3 4 -38 4 -41 0 -58 -2 -37 -4z"/>
<path d="M203 2655 c-3 -9 -3 -19 1 -22 3 -4 6 1 6 10 0 21 23 22 40 2 18 -22
30 -18 29 8 0 19 -1 20 -8 4 -6 -17 -8 -17 -20 -3 -17 20 -40 21 -48 1z"/>
<path d="M198 2588 c-34 -7 -48 -15 -48 -27 0 -14 2 -14 10 -1 8 12 14 12 47
-5 57 -29 61 -29 28 -1 l-30 25 28 1 c15 0 27 5 27 10 0 6 -3 9 -7 9 -5 -1
-29 -6 -55 -11z"/>
<path d="M410 2529 c0 -5 5 -7 10 -4 6 4 10 -10 10 -34 0 -22 -5 -42 -12 -44
-7 -3 3 -5 22 -5 19 0 27 2 18 5 -14 3 -18 15 -18 49 0 32 -4 44 -15 44 -8 0
-15 -5 -15 -11z"/>
<path d="M526 2532 c-3 -6 2 -8 14 -5 34 9 36 -24 4 -58 l-28 -29 40 1 c31 2
34 3 10 6 l-28 5 22 23 c12 13 20 31 18 42 -3 19 -42 30 -52 15z"/>
<path d="M610 2521 c0 -13 8 -21 23 -23 14 -2 22 -10 22 -23 0 -14 -6 -20 -22
-19 -13 0 -23 -3 -23 -8 0 -15 49 -8 59 9 11 21 -3 53 -24 53 -24 0 -17 18 8
23 16 3 13 5 -10 6 -26 1 -33 -3 -33 -18z"/>
<path d="M213 2445 c0 -27 2 -38 4 -22 2 15 2 37 0 50 -2 12 -4 0 -4 -28z"/>
<path d="M480 2450 c0 -5 5 -10 10 -10 6 0 10 5 10 10 0 6 -4 10 -10 10 -5 0
-10 -4 -10 -10z"/>
<path d="M203 2335 c-3 -9 -3 -19 1 -22 3 -4 6 1 6 10 0 21 23 22 40 2 18 -22
30 -18 29 8 0 19 -1 20 -8 4 -6 -17 -8 -17 -20 -3 -17 20 -40 21 -48 1z"/>
<path d="M100 2265 c0 -8 4 -15 8 -15 5 0 9 7 9 15 0 8 -4 15 -9 15 -4 0 -8
-7 -8 -15z"/>
<path d="M198 2268 c-34 -7 -48 -15 -48 -27 0 -14 2 -14 10 -1 8 12 14 12 47
-5 57 -29 61 -29 28 -1 l-30 25 28 1 c15 0 27 5 27 10 0 6 -3 9 -7 9 -5 -1
-29 -6 -55 -11z"/>
<path d="M183 2193 c20 -2 54 -2 75 0 20 2 3 4 -38 4 -41 0 -58 -2 -37 -4z"/>
<path d="M410 2139 c0 -5 5 -7 10 -4 6 4 10 -10 10 -34 0 -22 -5 -42 -12 -44
-7 -3 3 -5 22 -5 19 0 27 2 18 5 -14 3 -18 15 -18 49 0 32 -4 44 -15 44 -8 0
-15 -5 -15 -11z"/>
<path d="M532 2138 c-17 -17 -15 -63 4 -79 22 -18 48 0 52 35 6 45 -29 71 -56
44z m43 -18 c7 -23 -2 -60 -15 -60 -18 0 -31 39 -20 60 6 11 15 20 20 20 5 0
12 -9 15 -20z"/>
<path d="M622 2138 c-26 -26 -8 -88 25 -88 23 0 38 46 25 75 -13 27 -31 32
-50 13z m33 -38 c0 -18 -5 -35 -12 -37 -15 -5 -26 31 -18 58 10 31 30 17 30
-21z"/>
<path d="M180 2068 c0 -26 3 -28 40 -28 22 0 40 5 40 10 0 6 -13 10 -30 10
-17 0 -33 7 -39 18 -9 14 -10 13 -11 -10z"/>
<path d="M480 2060 c0 -5 5 -10 10 -10 6 0 10 5 10 10 0 6 -4 10 -10 10 -5 0
-10 -4 -10 -10z"/>
<path d="M198 2010 c-11 -7 -16 -24 -16 -60 l-1 -50 40 0 c47 0 53 17 7 22
-43 4 -48 26 -6 30 38 4 51 34 22 55 -21 15 -24 15 -46 3z m47 -30 c0 -18 -33
-26 -47 -12 -6 6 -7 15 -3 22 10 16 50 8 50 -10z"/>
<path d="M180 1868 c0 -26 3 -28 40 -28 22 0 40 5 40 10 0 6 -13 10 -30 10
-17 0 -33 7 -39 18 -9 14 -10 13 -11 -10z"/>
<path d="M189 1804 c-17 -20 -1 -48 31 -52 25 -4 40 13 39 43 -1 17 -2 16 -8
-4 -10 -37 -31 -38 -31 -2 0 34 -11 39 -31 15z m21 -25 c0 -11 -4 -17 -10 -14
-5 3 -10 13 -10 21 0 8 5 14 10 14 6 0 10 -9 10 -21z"/>
<path d="M422 1758 c-26 -26 -8 -88 25 -88 23 0 38 46 25 75 -13 27 -31 32
-50 13z m33 -38 c0 -18 -5 -35 -12 -37 -15 -5 -26 31 -18 58 10 31 30 17 30
-21z"/>
<path d="M553 1763 c32 -5 31 -1 11 -48 -8 -20 -13 -40 -10 -42 3 -3 10 5 15
18 34 87 35 79 -7 78 -30 -2 -32 -3 -9 -6z"/>
<path d="M620 1751 c0 -13 8 -21 23 -23 14 -2 22 -10 22 -23 0 -14 -6 -20 -22
-19 -13 0 -23 -3 -23 -8 0 -5 12 -8 28 -6 21 2 28 9 30 31 3 22 -1 30 -17 34
-28 7 -27 21 2 26 16 3 13 5 -10 6 -26 1 -33 -3 -33 -18z"/>
<path d="M189 1684 c-17 -20 -1 -48 31 -52 25 -4 40 13 39 43 -1 17 -2 16 -8
-4 -10 -37 -31 -38 -31 -2 0 34 -11 39 -31 15z m21 -25 c0 -11 -4 -17 -10 -14
-5 3 -10 13 -10 21 0 8 5 14 10 14 6 0 10 -9 10 -21z"/>
<path d="M490 1680 c0 -5 5 -10 10 -10 6 0 10 5 10 10 0 6 -4 10 -10 10 -5 0
-10 -4 -10 -10z"/>
<path d="M180 1602 c0 -5 15 -14 33 -19 l32 -10 -33 -13 c-18 -7 -31 -14 -28
-17 7 -8 76 17 76 28 0 5 -2 9 -4 9 -2 0 -20 7 -40 15 -20 8 -36 11 -36 7z"/>
<path d="M180 1510 c0 -5 18 -10 40 -10 22 0 40 5 40 10 0 6 -18 10 -40 10
-22 0 -40 -4 -40 -10z"/>
<path d="M171 1473 c-19 -21 0 -31 47 -24 27 5 37 12 39 26 2 11 0 14 -3 8 -6
-15 -61 -18 -66 -4 -1 5 -9 2 -17 -6z"/>
<path d="M187 1423 c-4 -3 -7 -16 -6 -27 0 -19 1 -19 11 4 l11 25 6 -25 c10
-36 46 -34 47 3 1 24 -3 27 -31 27 -17 0 -35 -3 -38 -7z m58 -21 c0 -18 -20
-15 -23 4 -3 10 1 15 10 12 7 -3 13 -10 13 -16z"/>
<path d="M422 1368 c-26 -26 -8 -88 25 -88 23 0 38 46 25 75 -13 27 -31 32
-50 13z m33 -38 c0 -38 -20 -52 -30 -21 -8 27 3 63 18 58 7 -2 12 -19 12 -37z"/>
<path d="M540 1361 c0 -11 9 -21 21 -24 28 -8 21 -39 -11 -48 l-25 -7 26 -1
c49 -2 65 54 19 66 -27 7 -25 21 3 26 19 4 18 4 -5 6 -21 1 -28 -4 -28 -18z"/>
<path d="M624 1355 c-10 -39 3 -75 26 -75 29 0 47 42 32 75 -7 15 -20 25 -32
25 -13 0 -22 -9 -26 -25z m41 -26 c0 -24 -5 -34 -15 -34 -16 0 -25 37 -16 62
10 26 31 8 31 -28z"/>
<path d="M150 1340 c0 -5 25 -10 55 -10 30 0 55 5 55 10 0 6 -25 10 -55 10
-30 0 -55 -4 -55 -10z"/>
<path d="M189 1294 c-17 -20 -1 -48 31 -52 25 -4 40 13 39 43 -1 17 -2 16 -8
-4 -10 -37 -31 -38 -31 -2 0 34 -11 39 -31 15z m21 -25 c0 -11 -4 -17 -10 -14
-5 3 -10 13 -10 21 0 8 5 14 10 14 6 0 10 -9 10 -21z"/>
<path d="M490 1290 c0 -5 5 -10 10 -10 6 0 10 5 10 10 0 6 -4 10 -10 10 -5 0
-10 -4 -10 -10z"/>
<path d="M246 1223 c-4 -5 -24 -8 -44 -8 -34 0 -37 -2 -40 -32 l-3 -33 50 0
c28 0 51 5 51 10 0 6 -11 10 -25 10 -33 0 -32 13 3 39 15 11 24 21 21 21 -3 0
-9 -3 -13 -7z m-46 -38 c0 -8 -7 -15 -15 -15 -8 0 -15 7 -15 15 0 8 7 15 15
15 8 0 15 -7 15 -15z"/>
<path d="M422 988 c-26 -26 -8 -88 25 -88 23 0 38 46 25 75 -13 27 -31 32 -50
13z m33 -38 c0 -38 -20 -52 -30 -21 -8 27 3 63 18 58 7 -2 12 -19 12 -37z"/>
<path d="M536 992 c-3 -5 4 -8 16 -8 31 1 32 -18 3 -53 l-27 -31 39 1 c31 2
33 3 9 6 l-28 5 22 23 c12 13 20 31 18 42 -3 19 -42 31 -52 15z"/>
<path d="M620 981 c0 -13 8 -21 23 -23 14 -2 22 -10 22 -23 0 -14 -6 -20 -22
-19 -13 0 -23 -3 -23 -8 0 -5 12 -8 28 -6 21 2 28 9 30 31 3 22 -1 30 -17 34
-28 7 -27 21 2 26 16 3 13 5 -10 6 -26 1 -33 -3 -33 -18z"/>
<path d="M490 910 c0 -5 5 -10 10 -10 6 0 10 5 10 10 0 6 -4 10 -10 10 -5 0
-10 -4 -10 -10z"/>
<path d="M422 598 c-26 -26 -8 -88 25 -88 23 0 38 46 25 75 -13 27 -31 32 -50
13z m33 -38 c0 -18 -5 -35 -12 -37 -15 -5 -26 31 -18 58 10 31 30 17 30 -21z"/>
<path d="M542 598 c-17 -17 -15 -63 4 -79 22 -18 48 0 52 35 6 45 -29 71 -56
44z m38 -18 c11 -21 -2 -60 -20 -60 -13 0 -22 37 -15 60 3 11 10 20 15 20 5 0
14 -9 20 -20z"/>
<path d="M624 585 c-10 -39 3 -75 26 -75 29 0 47 42 32 75 -7 15 -20 25 -32
25 -13 0 -22 -9 -26 -25z m41 -26 c0 -24 -5 -34 -15 -34 -16 0 -25 37 -16 62
10 26 31 8 31 -28z"/>
<path d="M490 520 c0 -5 5 -10 10 -10 6 0 10 5 10 10 0 6 -4 10 -10 10 -5 0
-10 -4 -10 -10z"/>
<path d="M1150 451 c0 -5 8 -7 19 -4 30 8 33 -13 6 -45 -32 -39 -32 -42 8 -41
23 1 26 3 10 6 l-23 4 22 29 c11 16 18 36 15 44 -7 17 -57 23 -57 7z"/>
<path d="M1280 452 c0 -6 8 -8 19 -5 31 8 35 -17 7 -46 -34 -35 -33 -41 7 -40
25 1 27 3 9 6 l-24 5 22 23 c29 30 23 59 -13 63 -15 2 -27 -1 -27 -6z"/>
<path d="M1370 440 c0 -13 7 -20 19 -20 20 0 35 -25 25 -41 -3 -5 -15 -9 -26
-9 -12 0 -19 -3 -15 -6 3 -4 18 -3 32 0 33 8 31 46 -2 61 -13 5 -23 13 -23 17
0 3 10 9 23 11 19 4 18 4 -5 6 -22 1 -28 -4 -28 -19z"/>
<path d="M1960 451 c0 -5 8 -7 19 -4 30 8 33 -13 6 -45 -32 -39 -32 -42 8 -41
23 1 26 3 10 6 l-23 4 22 29 c11 16 18 36 15 44 -7 17 -57 23 -57 7z"/>
<path d="M2094 446 c-3 -8 -4 -29 -2 -48 2 -25 8 -34 25 -36 29 -4 47 36 33
73 -10 27 -47 35 -56 11z m41 -37 c0 -24 -5 -34 -15 -34 -16 0 -25 37 -16 62
10 26 31 8 31 -28z"/>
<path d="M2178 436 c-16 -37 3 -79 35 -74 19 3 22 9 22 48 0 39 -3 45 -22 48
-16 2 -26 -4 -35 -22z m47 -27 c0 -24 -5 -34 -15 -34 -16 0 -25 37 -16 62 10
26 31 8 31 -28z"/>
<path d="M2765 450 c-4 -6 -1 -9 7 -8 8 2 14 -10 16 -34 2 -28 -1 -37 -15 -41
-10 -3 -2 -5 17 -5 19 0 29 2 23 5 -8 3 -13 23 -13 49 0 32 -4 44 -14 44 -8 0
-18 -5 -21 -10z"/>
<path d="M2912 453 c28 -4 28 -4 13 -40 -21 -51 -17 -66 6 -18 26 56 24 65
-13 64 -31 -2 -31 -2 -6 -6z"/>
<path d="M2980 441 c0 -13 8 -21 23 -23 31 -4 29 -40 -3 -49 -14 -4 -18 -7 -8
-8 30 -2 48 11 48 35 0 17 -7 25 -25 30 -31 8 -32 21 -2 27 19 4 18 4 -5 6
-21 1 -28 -4 -28 -18z"/>
<path d="M3575 450 c-4 -6 -1 -9 7 -8 8 2 14 -10 16 -34 2 -28 -1 -37 -15 -41
-10 -3 -2 -5 17 -5 19 0 29 2 23 5 -8 3 -13 23 -13 49 0 32 -4 44 -14 44 -8 0
-18 -5 -21 -10z"/>
<path d="M3700 441 c0 -13 8 -21 23 -23 14 -2 22 -10 22 -23 0 -14 -6 -20 -22
-19 -13 0 -23 -3 -23 -8 0 -5 12 -8 28 -6 21 2 28 9 30 31 3 22 -1 30 -17 34
-28 7 -27 21 2 26 16 3 13 5 -10 6 -26 1 -33 -3 -33 -18z"/>
<path d="M3794 447 c-3 -8 -4 -30 -2 -49 2 -28 7 -33 28 -33 23 0 25 4 25 45
0 39 -3 45 -23 48 -13 2 -24 -3 -28 -11z m41 -38 c0 -24 -5 -34 -15 -34 -16 0
-25 37 -16 62 10 26 31 8 31 -28z"/>
<path d="M4375 450 c-4 -6 -1 -9 7 -8 8 2 14 -10 16 -34 2 -28 -1 -37 -15 -41
-10 -3 -2 -5 17 -5 19 0 29 2 23 5 -8 3 -13 23 -13 49 0 32 -4 44 -14 44 -8 0
-18 -5 -21 -10z"/>
<path d="M4500 452 c0 -6 8 -8 19 -5 31 8 35 -17 7 -46 -34 -35 -33 -41 7 -40
25 1 27 3 9 6 l-24 5 22 23 c29 30 23 59 -13 63 -15 2 -27 -1 -27 -6z"/>
<path d="M4590 441 c0 -13 8 -21 23 -23 31 -4 29 -40 -3 -49 -14 -4 -18 -7 -8
-8 30 -2 48 11 48 35 0 17 -7 25 -25 30 -31 8 -32 21 -2 27 19 4 18 4 -5 6
-21 1 -28 -4 -28 -18z"/>
<path d="M5185 450 c-4 -6 -1 -9 7 -8 8 2 14 -10 16 -34 2 -28 -1 -37 -15 -41
-10 -3 -2 -5 17 -5 19 0 29 2 23 5 -8 3 -13 23 -13 49 0 32 -4 44 -14 44 -8 0
-18 -5 -21 -10z"/>
<path d="M5314 435 c-10 -39 3 -75 26 -75 12 0 25 10 32 25 15 33 -3 75 -32
75 -13 0 -22 -9 -26 -25z m41 -26 c0 -24 -5 -34 -15 -34 -16 0 -25 37 -16 62
10 26 31 8 31 -28z"/>
<path d="M5404 447 c-3 -8 -4 -30 -2 -49 2 -28 7 -33 28 -33 23 0 25 4 25 45
0 39 -3 45 -23 48 -13 2 -24 -3 -28 -11z m41 -38 c0 -24 -5 -34 -15 -34 -16 0
-25 37 -16 62 10 26 31 8 31 -28z"/>
<path d="M5984 447 c-3 -8 -4 -30 -2 -49 2 -28 7 -33 28 -33 23 0 25 4 25 45
0 39 -3 45 -23 48 -13 2 -24 -3 -28 -11z m41 -38 c0 -24 -5 -34 -15 -34 -16 0
-25 37 -16 62 10 26 31 8 31 -28z"/>
<path d="M6132 453 l27 -4 -19 -45 c-11 -24 -16 -44 -11 -44 8 0 41 76 41 93
0 4 -15 6 -32 6 -30 -2 -30 -2 -6 -6z"/>
<path d="M6200 440 c0 -13 7 -20 19 -20 20 0 35 -25 25 -41 -3 -5 -15 -9 -26
-9 -12 0 -19 -3 -15 -6 3 -4 18 -3 32 0 33 8 31 46 -2 61 -13 5 -23 13 -23 17
0 3 10 9 23 11 19 4 18 4 -5 6 -22 1 -28 -4 -28 -19z"/>
<path d="M6794 447 c-3 -8 -4 -30 -2 -49 2 -28 7 -33 28 -33 23 0 25 4 25 45
0 39 -3 45 -23 48 -13 2 -24 -3 -28 -11z m41 -38 c0 -24 -5 -34 -15 -34 -16 0
-25 37 -16 62 10 26 31 8 31 -28z"/>
<path d="M6920 441 c0 -13 8 -21 23 -23 31 -4 29 -40 -3 -50 -23 -6 -23 -7 5
-5 25 2 31 7 33 30 3 22 -1 30 -17 34 -28 7 -27 21 2 26 16 3 13 5 -10 6 -26
1 -33 -3 -33 -18z"/>
<path d="M7008 436 c-16 -37 3 -79 35 -74 19 3 22 9 22 48 0 39 -3 45 -22 48
-16 2 -26 -4 -35 -22z m47 -27 c0 -24 -5 -34 -15 -34 -16 0 -25 37 -16 62 10
26 31 8 31 -28z"/>
<path d="M1063 403 c15 -2 37 -2 50 0 12 2 0 4 -28 4 -27 0 -38 -2 -22 -4z"/>
<path d="M1873 403 c15 -2 37 -2 50 0 12 2 0 4 -28 4 -27 0 -38 -2 -22 -4z"/>
<path d="M2673 403 c15 -2 37 -2 50 0 12 2 0 4 -28 4 -27 0 -38 -2 -22 -4z"/>
<path d="M3483 403 c15 -2 37 -2 50 0 12 2 0 4 -28 4 -27 0 -38 -2 -22 -4z"/>
<path d="M4283 403 c15 -2 37 -2 50 0 12 2 0 4 -28 4 -27 0 -38 -2 -22 -4z"/>
<path d="M5093 403 c15 -2 37 -2 50 0 12 2 0 4 -28 4 -27 0 -38 -2 -22 -4z"/>
<path d="M5893 403 c15 -2 37 -2 50 0 12 2 0 4 -28 4 -27 0 -38 -2 -22 -4z"/>
<path d="M6703 403 c15 -2 37 -2 50 0 12 2 0 4 -28 4 -27 0 -38 -2 -22 -4z"/>
<path d="M3640 195 c0 -30 5 -55 10 -55 6 0 10 25 10 55 0 30 -4 55 -10 55 -5
0 -10 -25 -10 -55z"/>
<path d="M4020 215 c-6 -14 -14 -36 -20 -50 -9 -24 -8 -25 36 -25 33 0 45 4
41 13 -2 6 -10 29 -18 50 -15 43 -26 47 -39 12z m35 -37 c7 -25 5 -28 -20 -28
-22 0 -26 3 -20 18 4 9 10 25 12 35 7 23 19 11 28 -25z"/>
<path d="M4098 228 c-2 -7 -3 -29 -3 -48 0 -27 5 -35 20 -38 17 -2 18 -1 4 7
-20 13 -14 58 10 64 13 4 13 5 -2 6 -10 0 -15 6 -12 11 3 6 2 10 -3 10 -6 0
-12 -6 -14 -12z"/>
<path d="M3674 206 c-11 -29 1 -61 23 -64 29 -4 48 30 33 58 -12 23 -48 27
-56 6z m41 -26 c0 -27 -22 -39 -31 -16 -8 22 3 49 19 43 6 -2 12 -14 12 -27z"/>
<path d="M3764 205 c-12 -30 0 -60 24 -59 12 0 22 -3 22 -8 0 -5 -10 -13 -22
-18 l-23 -9 22 0 c27 -1 43 26 43 72 0 31 -3 34 -31 35 -17 0 -32 -5 -35 -13z
m41 -25 c0 -27 -22 -39 -31 -16 -8 22 3 49 19 43 6 -2 12 -14 12 -27z"/>
<path d="M3858 193 c6 -2 12 -17 12 -33 0 -16 -6 -31 -12 -33 -7 -3 -4 -6 7
-6 18 -1 20 4 17 39 -3 29 -8 40 -21 39 -10 0 -11 -2 -3 -6z"/>
<path d="M3914 187 c-9 -25 0 -62 15 -62 8 0 15 6 17 13 1 7 0 8 -3 2 -10 -20
-23 -9 -23 20 0 29 13 40 23 20 3 -6 4 -5 3 2 -4 18 -25 22 -32 5z"/>
</g>
</svg>
