<?xml version="1.0" encoding="UTF-8" standalone="no"?>
<!-- Created with Inkscape (http://www.inkscape.org/) -->

<svg
   version="1.1"
   id="svg2"
   width="373.47589"
   height="299.78732"
   viewBox="0 0 373.47589 299.78732"
   xmlns="http://www.w3.org/2000/svg"
   xmlns:svg="http://www.w3.org/2000/svg">
  <defs
     id="defs6">
    <clipPath
       clipPathUnits="userSpaceOnUse"
       id="clipPath116">
      <path
         d="m 47.21625,37.018317 h 223.2 V 203.33832 h -223.2 z"
         id="path114" />
    </clipPath>
    <clipPath
       clipPathUnits="userSpaceOnUse"
       id="clipPath126">
      <path
         d="m 47.21625,37.018317 h 223.2 V 203.33832 h -223.2 z"
         id="path124" />
    </clipPath>
    <clipPath
       clipPathUnits="userSpaceOnUse"
       id="clipPath136">
      <path
         d="m 47.21625,37.018317 h 223.2 V 203.33832 h -223.2 z"
         id="path134" />
    </clipPath>
    <clipPath
       clipPathUnits="userSpaceOnUse"
       id="clipPath146">
      <path
         d="m 47.21625,37.018317 h 223.2 V 203.33832 h -223.2 z"
         id="path144" />
    </clipPath>
    <clipPath
       clipPathUnits="userSpaceOnUse"
       id="clipPath156">
      <path
         d="m 47.21625,37.018317 h 223.2 V 203.33832 h -223.2 z"
         id="path154" />
    </clipPath>
    <clipPath
       clipPathUnits="userSpaceOnUse"
       id="clipPath166">
      <path
         d="m 47.21625,37.018317 h 223.2 V 203.33832 h -223.2 z"
         id="path164" />
    </clipPath>
    <clipPath
       clipPathUnits="userSpaceOnUse"
       id="clipPath176">
      <path
         d="m 47.21625,37.018317 h 223.2 V 203.33832 h -223.2 z"
         id="path174" />
    </clipPath>
    <clipPath
       clipPathUnits="userSpaceOnUse"
       id="clipPath186">
      <path
         d="m 47.21625,37.018317 h 223.2 V 203.33832 h -223.2 z"
         id="path184" />
    </clipPath>
    <clipPath
       clipPathUnits="userSpaceOnUse"
       id="clipPath196">
      <path
         d="m 47.21625,37.018317 h 223.2 V 203.33832 h -223.2 z"
         id="path194" />
    </clipPath>
    <clipPath
       clipPathUnits="userSpaceOnUse"
       id="clipPath206">
      <path
         d="m 47.21625,37.018317 h 223.2 V 203.33832 h -223.2 z"
         id="path204" />
    </clipPath>
    <clipPath
       clipPathUnits="userSpaceOnUse"
       id="clipPath216">
      <path
         d="m 47.21625,37.018317 h 223.2 V 203.33832 h -223.2 z"
         id="path214" />
    </clipPath>
    <clipPath
       clipPathUnits="userSpaceOnUse"
       id="clipPath226">
      <path
         d="m 47.21625,37.018317 h 223.2 V 203.33832 h -223.2 z"
         id="path224" />
    </clipPath>
    <clipPath
       clipPathUnits="userSpaceOnUse"
       id="clipPath236">
      <path
         d="m 47.21625,37.018317 h 223.2 V 203.33832 h -223.2 z"
         id="path234" />
    </clipPath>
    <clipPath
       clipPathUnits="userSpaceOnUse"
       id="clipPath246">
      <path
         d="m 47.21625,37.018317 h 223.2 V 203.33832 h -223.2 z"
         id="path244" />
    </clipPath>
    <clipPath
       clipPathUnits="userSpaceOnUse"
       id="clipPath256">
      <path
         d="m 47.21625,37.018317 h 223.2 V 203.33832 h -223.2 z"
         id="path254" />
    </clipPath>
    <clipPath
       clipPathUnits="userSpaceOnUse"
       id="clipPath266">
      <path
         d="m 47.21625,37.018317 h 223.2 V 203.33832 h -223.2 z"
         id="path264" />
    </clipPath>
    <clipPath
       clipPathUnits="userSpaceOnUse"
       id="clipPath276">
      <path
         d="m 47.21625,37.018317 h 223.2 V 203.33832 h -223.2 z"
         id="path274" />
    </clipPath>
    <clipPath
       clipPathUnits="userSpaceOnUse"
       id="clipPath286">
      <path
         d="m 47.21625,37.018317 h 223.2 V 203.33832 h -223.2 z"
         id="path284" />
    </clipPath>
    <clipPath
       clipPathUnits="userSpaceOnUse"
       id="clipPath296">
      <path
         d="m 47.21625,37.018317 h 223.2 V 203.33832 h -223.2 z"
         id="path294" />
    </clipPath>
    <clipPath
       clipPathUnits="userSpaceOnUse"
       id="clipPath306">
      <path
         d="m 47.21625,37.018317 h 223.2 V 203.33832 h -223.2 z"
         id="path304" />
    </clipPath>
  </defs>
  <g
     id="g8"
     transform="matrix(1.3333333,0,0,-1.3333333,0,299.78733)">
    <path
       d="M 0,0 H 280.10692 V 224.8405 H 0 Z"
       style="fill:#ffffff;fill-opacity:1;fill-rule:nonzero;stroke:none"
       id="path10" />
    <path
       d="m 47.21625,37.018317 h 223.2 V 203.33832 h -223.2 z"
       style="fill:#ffffff;fill-opacity:1;fill-rule:nonzero;stroke:none"
       id="path12" />
    <path
       d="m 90.052614,37.018317 v -3.5"
       style="fill:#000000;fill-opacity:1;fill-rule:nonzero;stroke:#000000;stroke-width:0.8;stroke-linecap:butt;stroke-linejoin:round;stroke-miterlimit:10;stroke-dasharray:none;stroke-opacity:1"
       id="path14" />
    <text
       xml:space="preserve"
       transform="matrix(1,0,0,-1,87.561946,23.099818)"
       style="font-variant:normal;font-weight:normal;font-size:9.96264px;font-family:'Computer Modern';-inkscape-font-specification:CMR10;writing-mode:lr-tb;fill:#000000;fill-opacity:1;fill-rule:nonzero;stroke:none"
       id="text18"><tspan
         x="0"
         y="0"
         id="tspan16">1</tspan></text>
    <path
       d="m 135.14352,37.018317 v -3.5"
       style="fill:#000000;fill-opacity:1;fill-rule:nonzero;stroke:#000000;stroke-width:0.8;stroke-linecap:butt;stroke-linejoin:round;stroke-miterlimit:10;stroke-dasharray:none;stroke-opacity:1"
       id="path20" />
    <text
       xml:space="preserve"
       transform="matrix(1,0,0,-1,132.65286,23.099818)"
       style="font-variant:normal;font-weight:normal;font-size:9.96264px;font-family:'Computer Modern';-inkscape-font-specification:CMR10;writing-mode:lr-tb;fill:#000000;fill-opacity:1;fill-rule:nonzero;stroke:none"
       id="text24"><tspan
         x="0"
         y="0"
         id="tspan22">2</tspan></text>
    <path
       d="m 180.23443,37.018317 v -3.5"
       style="fill:#000000;fill-opacity:1;fill-rule:nonzero;stroke:#000000;stroke-width:0.8;stroke-linecap:butt;stroke-linejoin:round;stroke-miterlimit:10;stroke-dasharray:none;stroke-opacity:1"
       id="path26" />
    <text
       xml:space="preserve"
       transform="matrix(1,0,0,-1,177.74376,23.099818)"
       style="font-variant:normal;font-weight:normal;font-size:9.96264px;font-family:'Computer Modern';-inkscape-font-specification:CMR10;writing-mode:lr-tb;fill:#000000;fill-opacity:1;fill-rule:nonzero;stroke:none"
       id="text30"><tspan
         x="0"
         y="0"
         id="tspan28">3</tspan></text>
    <path
       d="m 225.32534,37.018317 v -3.5"
       style="fill:#000000;fill-opacity:1;fill-rule:nonzero;stroke:#000000;stroke-width:0.8;stroke-linecap:butt;stroke-linejoin:round;stroke-miterlimit:10;stroke-dasharray:none;stroke-opacity:1"
       id="path32" />
    <text
       xml:space="preserve"
       transform="matrix(1,0,0,-1,222.83467,23.099818)"
       style="font-variant:normal;font-weight:normal;font-size:9.96264px;font-family:'Computer Modern';-inkscape-font-specification:CMR10;writing-mode:lr-tb;fill:#000000;fill-opacity:1;fill-rule:nonzero;stroke:none"
       id="text36"><tspan
         x="0"
         y="0"
         id="tspan34">4</tspan></text>
    <path
       d="m 270.41625,37.018317 v -3.5"
       style="fill:#000000;fill-opacity:1;fill-rule:nonzero;stroke:#000000;stroke-width:0.8;stroke-linecap:butt;stroke-linejoin:round;stroke-miterlimit:10;stroke-dasharray:none;stroke-opacity:1"
       id="path38" />
    <text
       xml:space="preserve"
       transform="matrix(1,0,0,-1,267.92558,23.099818)"
       style="font-variant:normal;font-weight:normal;font-size:9.96264px;font-family:'Computer Modern';-inkscape-font-specification:CMR10;writing-mode:lr-tb;fill:#000000;fill-opacity:1;fill-rule:nonzero;stroke:none"
       id="text42"><tspan
         x="0"
         y="0"
         id="tspan40">5</tspan></text>
    <text
       xml:space="preserve"
       transform="matrix(1,0,0,-1,113.83209,9.69066)"
       style="font-variant:normal;font-weight:normal;font-size:9.96264px;font-family:'Computer Modern';-inkscape-font-specification:CMR10;writing-mode:lr-tb;fill:#000000;fill-opacity:1;fill-rule:nonzero;stroke:none"
       id="text46"><tspan
         x="0 5.665411 10.646731 14.542124 18.965536 23.388948 28.370268 32.295547 39.481926 45.011192 49.992512 53.887905 56.647556 61.070969 66.052292 74.902428 77.662079 83.191345 87.116623"
         y="0"
         id="tspan44">Forecasthorizon[ns]</tspan></text>
    <path
       d="m 47.21625,80.500913 h -3.5"
       style="fill:#000000;fill-opacity:1;fill-rule:nonzero;stroke:#000000;stroke-width:0.8;stroke-linecap:butt;stroke-linejoin:round;stroke-miterlimit:10;stroke-dasharray:none;stroke-opacity:1"
       id="path48" />
    <text
       xml:space="preserve"
       transform="matrix(1,0,0,-1,20.055677,77.041664)"
       style="font-variant:normal;font-weight:normal;font-size:9.96264px;font-family:'Computer Modern';-inkscape-font-specification:CMR10;writing-mode:lr-tb;fill:#000000;fill-opacity:1;fill-rule:nonzero;stroke:none"
       id="text52"><tspan
         x="0 4.9813199"
         y="0"
         id="tspan50">10</tspan></text>
    <text
       xml:space="preserve"
       transform="matrix(1,0,0,-1,30.018347,80.657028)"
       style="font-style:italic;font-variant:normal;font-weight:normal;font-size:6.97385px;font-family:'Computer Modern';-inkscape-font-specification:CMSY7;writing-mode:lr-tb;fill:#000000;fill-opacity:1;fill-rule:nonzero;stroke:none"
       id="text56"><tspan
         x="0"
         y="0"
         id="tspan54">−</tspan></text>
    <text
       xml:space="preserve"
       transform="matrix(1,0,0,-1,36.245012,80.657028)"
       style="font-variant:normal;font-weight:normal;font-size:6.97385px;font-family:'Computer Modern';-inkscape-font-specification:CMR7;writing-mode:lr-tb;fill:#000000;fill-opacity:1;fill-rule:nonzero;stroke:none"
       id="text60"><tspan
         x="0"
         y="0"
         id="tspan58">1</tspan></text>
    <path
       d="m 47.21625,163.66091 h -3.5"
       style="fill:#000000;fill-opacity:1;fill-rule:nonzero;stroke:#000000;stroke-width:0.8;stroke-linecap:butt;stroke-linejoin:round;stroke-miterlimit:10;stroke-dasharray:none;stroke-opacity:1"
       id="path62" />
    <text
       xml:space="preserve"
       transform="matrix(1,0,0,-1,26.282342,160.20166)"
       style="font-variant:normal;font-weight:normal;font-size:9.96264px;font-family:'Computer Modern';-inkscape-font-specification:CMR10;writing-mode:lr-tb;fill:#000000;fill-opacity:1;fill-rule:nonzero;stroke:none"
       id="text66"><tspan
         x="0 4.9813199"
         y="0"
         id="tspan64">10</tspan></text>
    <text
       xml:space="preserve"
       transform="matrix(1,0,0,-1,36.245012,163.81703)"
       style="font-variant:normal;font-weight:normal;font-size:6.97385px;font-family:'Computer Modern';-inkscape-font-specification:CMR7;writing-mode:lr-tb;fill:#000000;fill-opacity:1;fill-rule:nonzero;stroke:none"
       id="text70"><tspan
         x="0"
         y="0"
         id="tspan68">0</tspan></text>
    <path
       d="m 47.21625,37.018317 h -2"
       style="fill:#000000;fill-opacity:1;fill-rule:nonzero;stroke:#000000;stroke-width:0.6;stroke-linecap:butt;stroke-linejoin:round;stroke-miterlimit:10;stroke-dasharray:none;stroke-opacity:1"
       id="path72" />
    <path
       d="m 47.21625,47.408222 h -2"
       style="fill:#000000;fill-opacity:1;fill-rule:nonzero;stroke:#000000;stroke-width:0.6;stroke-linecap:butt;stroke-linejoin:round;stroke-miterlimit:10;stroke-dasharray:none;stroke-opacity:1"
       id="path74" />
    <path
       d="m 47.21625,55.467259 h -2"
       style="fill:#000000;fill-opacity:1;fill-rule:nonzero;stroke:#000000;stroke-width:0.6;stroke-linecap:butt;stroke-linejoin:round;stroke-miterlimit:10;stroke-dasharray:none;stroke-opacity:1"
       id="path76" />
    <path
       d="m 47.21625,62.051971 h -2"
       style="fill:#000000;fill-opacity:1;fill-rule:nonzero;stroke:#000000;stroke-width:0.6;stroke-linecap:butt;stroke-linejoin:round;stroke-miterlimit:10;stroke-dasharray:none;stroke-opacity:1"
       id="path78" />
    <path
       d="m 47.21625,67.619266 h -2"
       style="fill:#000000;fill-opacity:1;fill-rule:nonzero;stroke:#000000;stroke-width:0.6;stroke-linecap:butt;stroke-linejoin:round;stroke-miterlimit:10;stroke-dasharray:none;stroke-opacity:1"
       id="path80" />
    <path
       d="m 47.21625,72.441877 h -2"
       style="fill:#000000;fill-opacity:1;fill-rule:nonzero;stroke:#000000;stroke-width:0.6;stroke-linecap:butt;stroke-linejoin:round;stroke-miterlimit:10;stroke-dasharray:none;stroke-opacity:1"
       id="path82" />
    <path
       d="m 47.21625,76.69572 h -2"
       style="fill:#000000;fill-opacity:1;fill-rule:nonzero;stroke:#000000;stroke-width:0.6;stroke-linecap:butt;stroke-linejoin:round;stroke-miterlimit:10;stroke-dasharray:none;stroke-opacity:1"
       id="path84" />
    <path
       d="m 47.21625,105.53457 h -2"
       style="fill:#000000;fill-opacity:1;fill-rule:nonzero;stroke:#000000;stroke-width:0.6;stroke-linecap:butt;stroke-linejoin:round;stroke-miterlimit:10;stroke-dasharray:none;stroke-opacity:1"
       id="path86" />
    <path
       d="m 47.21625,120.17832 h -2"
       style="fill:#000000;fill-opacity:1;fill-rule:nonzero;stroke:#000000;stroke-width:0.6;stroke-linecap:butt;stroke-linejoin:round;stroke-miterlimit:10;stroke-dasharray:none;stroke-opacity:1"
       id="path88" />
    <path
       d="m 47.21625,130.56822 h -2"
       style="fill:#000000;fill-opacity:1;fill-rule:nonzero;stroke:#000000;stroke-width:0.6;stroke-linecap:butt;stroke-linejoin:round;stroke-miterlimit:10;stroke-dasharray:none;stroke-opacity:1"
       id="path90" />
    <path
       d="m 47.21625,138.62726 h -2"
       style="fill:#000000;fill-opacity:1;fill-rule:nonzero;stroke:#000000;stroke-width:0.6;stroke-linecap:butt;stroke-linejoin:round;stroke-miterlimit:10;stroke-dasharray:none;stroke-opacity:1"
       id="path92" />
    <path
       d="m 47.21625,145.21197 h -2"
       style="fill:#000000;fill-opacity:1;fill-rule:nonzero;stroke:#000000;stroke-width:0.6;stroke-linecap:butt;stroke-linejoin:round;stroke-miterlimit:10;stroke-dasharray:none;stroke-opacity:1"
       id="path94" />
    <path
       d="m 47.21625,150.77927 h -2"
       style="fill:#000000;fill-opacity:1;fill-rule:nonzero;stroke:#000000;stroke-width:0.6;stroke-linecap:butt;stroke-linejoin:round;stroke-miterlimit:10;stroke-dasharray:none;stroke-opacity:1"
       id="path96" />
    <path
       d="m 47.21625,155.60188 h -2"
       style="fill:#000000;fill-opacity:1;fill-rule:nonzero;stroke:#000000;stroke-width:0.6;stroke-linecap:butt;stroke-linejoin:round;stroke-miterlimit:10;stroke-dasharray:none;stroke-opacity:1"
       id="path98" />
    <path
       d="m 47.21625,159.85572 h -2"
       style="fill:#000000;fill-opacity:1;fill-rule:nonzero;stroke:#000000;stroke-width:0.6;stroke-linecap:butt;stroke-linejoin:round;stroke-miterlimit:10;stroke-dasharray:none;stroke-opacity:1"
       id="path100" />
    <path
       d="m 47.21625,188.69457 h -2"
       style="fill:#000000;fill-opacity:1;fill-rule:nonzero;stroke:#000000;stroke-width:0.6;stroke-linecap:butt;stroke-linejoin:round;stroke-miterlimit:10;stroke-dasharray:none;stroke-opacity:1"
       id="path102" />
    <path
       d="m 47.21625,203.33832 h -2"
       style="fill:#000000;fill-opacity:1;fill-rule:nonzero;stroke:#000000;stroke-width:0.6;stroke-linecap:butt;stroke-linejoin:round;stroke-miterlimit:10;stroke-dasharray:none;stroke-opacity:1"
       id="path104" />
    <text
       xml:space="preserve"
       transform="matrix(0,1,1,0,14.118498,105.78781)"
       style="font-variant:normal;font-weight:normal;font-size:9.96264px;font-family:'Computer Modern';-inkscape-font-specification:CMR10;writing-mode:lr-tb;fill:#000000;fill-opacity:1;fill-rule:nonzero;stroke:none"
       id="text108"><tspan
         x="0 7.3325033 16.458281 21.987547"
         y="0"
         id="tspan106">RMSE</tspan></text>
    <g
       id="g110">
      <g
         id="g112"
         clip-path="url(#clipPath116)">
        <path
           d="m 47.21625,144.62855 2.254546,5.0231 2.254545,5.58804 2.254545,4.60811 2.254546,3.55725 2.254545,2.70943 2.254546,2.0719 2.254545,1.59284 2.254546,1.23142 2.254545,0.956 2.254546,0.74735 2.254545,0.58459 2.254546,0.45867 2.254545,0.36006 2.254545,0.28547 2.254546,0.22672 2.254545,0.17954 2.254546,0.14211 2.254545,0.11223 2.254546,0.0881 2.254545,0.0686 2.254546,0.055 2.254545,0.0446 2.254546,0.0346 2.254544,0.0281 2.25455,0.0225 2.25454,0.0181 2.25455,0.0165 2.25454,0.0137 2.25455,0.01 2.25454,0.009 2.25455,0.008 2.25455,0.007 2.25454,0.004 2.25455,7e-5 2.25454,4.7e-4 2.25455,6.8e-4 2.25454,-0.001 2.25455,-8.8e-4 2.25454,-0.001 2.25455,-0.002 2.25454,6e-5 2.25455,-1.3e-4 2.25454,-5e-4 2.25455,3.6e-4 2.25455,0.002 2.25454,0.003 2.25455,0.002 2.25454,8.3e-4 2.25455,0.003 2.25454,0.003 2.25455,0.002 2.25454,-2.4e-4 2.25455,2.2e-4 2.25454,2.9e-4 2.25455,-8e-5 2.25455,1.1e-4 2.25454,-2.7e-4 2.25455,4e-5 2.25454,0.002 2.25455,0.003 2.25454,0.001 2.25455,3.9e-4 2.25454,2.8e-4 2.25455,-8e-5 2.25454,-7e-5 2.25455,-6.8e-4 2.25455,-0.003 2.25454,-0.002 2.25455,-0.001 2.25454,-0.003 2.25455,-0.003 2.25454,-0.002 2.25455,-8.2e-4 2.25454,2.4e-4 2.25455,-6.4e-4 2.25454,9e-5 2.25455,0.002 2.25455,0.002 2.25454,0.002 2.25455,0.003 2.25454,0.002 2.25455,0.003 2.25454,0.002 2.25455,2e-5 2.25454,6.8e-4 2.25455,-10e-5 2.25454,-0.002 2.25455,-7.2e-4 2.25455,-0.002 2.25454,-0.002 2.25455,8.1e-4 2.25454,0.003 2.25455,6.9e-4 2.25454,-8e-5 2.25455,1.9e-4 2.25454,2e-4 2.25455,1.9e-4 2.25454,1.3e-4 2.25455,-0.001"
           style="fill:none;stroke:#000000;stroke-width:0.75;stroke-linecap:butt;stroke-linejoin:round;stroke-miterlimit:10;stroke-dasharray:2.775, 1.2;stroke-dashoffset:0;stroke-opacity:0.75"
           id="path118" />
      </g>
    </g>
    <g
       id="g120">
      <g
         id="g122"
         clip-path="url(#clipPath126)">
        <path
           d="m 47.21625,111.57515 2.254546,-0.17946 2.254545,0.65407 2.254545,1.06616 2.254546,1.37005 2.254545,1.57792 2.254546,1.75165 2.254545,1.81857 2.254546,1.85114 2.254545,1.8454 2.254546,1.82077 2.254545,1.76169 2.254546,1.70871 2.254545,1.63901 2.254545,1.57949 2.254546,1.52117 2.254545,1.4543 2.254546,1.38763 2.254545,1.32636 2.254546,1.26084 2.254545,1.19882 2.254546,1.15096 2.254545,1.10779 2.254546,1.05317 2.254544,1.01235 2.25455,0.9705 2.25454,0.9296 2.25455,0.89635 2.25454,0.86204 2.25455,0.82186 2.25454,0.79208 2.25455,0.7636 2.25455,0.7329 2.25454,0.70131 2.25455,0.66664 2.25454,0.64632 2.25455,0.62311 2.25454,0.59765 2.25455,0.57774 2.25454,0.55757 2.25455,0.53753 2.25454,0.52399 2.25455,0.50666 2.25454,0.48881 2.25455,0.47441 2.25455,0.46407 2.25454,0.44953 2.25455,0.43285 2.25454,0.41784 2.25455,0.40854 2.25454,0.39577 2.25455,0.38197 2.25454,0.36739 2.25455,0.35717 2.25454,0.34671 2.25455,0.33548 2.25455,0.32626 2.25454,0.31613 2.25455,0.30744 2.25454,0.30213 2.25455,0.29457 2.25454,0.28376 2.25455,0.27451 2.25454,0.26707 2.25455,0.25916 2.25454,0.25194 2.25455,0.24436 2.25455,0.235 2.25454,0.22913 2.25455,0.22436 2.25454,0.21661 2.25455,0.21021 2.25454,0.20562 2.25455,0.20232 2.25454,0.19819 2.25455,0.1924 2.25454,0.18809 2.25455,0.18603 2.25455,0.18163 2.25454,0.17723 2.25455,0.17368 2.25454,0.16777 2.25455,0.16461 2.25454,0.15965 2.25455,0.15325 2.25454,0.15002 2.25455,0.14553 2.25454,0.14006 2.25455,0.13769 2.25455,0.13252 2.25454,0.1301 2.25455,0.12986 2.25454,0.12936 2.25455,0.12354 2.25454,0.11955 2.25455,0.11711 2.25454,0.11417 2.25455,0.11161 2.25454,0.10877 2.25455,0.10438"
           style="fill:none;stroke:#000000;stroke-width:0.75;stroke-linecap:butt;stroke-linejoin:round;stroke-miterlimit:10;stroke-dasharray:2.775, 1.2;stroke-dashoffset:0;stroke-opacity:0.75"
           id="path128" />
      </g>
    </g>
    <g
       id="g130">
      <g
         id="g132"
         clip-path="url(#clipPath136)">
        <path
           d="m 47.21625,87.739824 2.254546,-0.32694 2.254545,0.411058 2.254545,0.485465 2.254546,0.548193 2.254545,0.542849 2.254546,0.689998 2.254545,0.728719 2.254546,0.818216 2.254545,0.856736 2.254546,0.923557 2.254545,0.932494 2.254546,0.980695 2.254545,0.960811 2.254545,1.01863 2.254546,1.059049 2.254545,1.055222 2.254546,1.052124 2.254545,1.04063 2.254546,0.99656 2.254545,0.93699 2.254546,0.9797 2.254545,0.99249 2.254546,0.9486 2.254544,0.94822 2.25455,0.93756 2.25454,0.90858 2.25455,0.91853 2.25454,0.91576 2.25455,0.86291 2.25454,0.85565 2.25455,0.84564 2.25455,0.82473 2.25454,0.7769 2.25455,0.72739 2.25454,0.73353 2.25455,0.71428 2.25454,0.68672 2.25455,0.67744 2.25454,0.66033 2.25455,0.64736 2.25454,0.65738 2.25455,0.64963 2.25454,0.62703 2.25455,0.62191 2.25455,0.63353 2.25454,0.61979 2.25455,0.59703 2.25454,0.5781 2.25455,0.58382 2.25454,0.56907 2.25455,0.55481 2.25454,0.52909 2.25455,0.52429 2.25454,0.51542 2.25455,0.50167 2.25455,0.49455 2.25454,0.4835 2.25455,0.47799 2.25454,0.48235 2.25455,0.47668 2.25454,0.4589 2.25455,0.44594 2.25454,0.44014 2.25455,0.43054 2.25454,0.42147 2.25455,0.41493 2.25455,0.39886 2.25454,0.39191 2.25455,0.39402 2.25454,0.38059 2.25455,0.3725 2.25454,0.37094 2.25455,0.37279 2.25454,0.36904 2.25455,0.36374 2.25454,0.36094 2.25455,0.3626 2.25455,0.35962 2.25454,0.35369 2.25455,0.35167 2.25454,0.34156 2.25455,0.33967 2.25454,0.33168 2.25455,0.32033 2.25454,0.31601 2.25455,0.30996 2.25454,0.3018 2.25455,0.29896 2.25455,0.28982 2.25454,0.29038 2.25455,0.29453 2.25454,0.29675 2.25455,0.28533 2.25454,0.27952 2.25455,0.27731 2.25454,0.27187 2.25455,0.26989 2.25454,0.26648 2.25455,0.25693"
           style="fill:none;stroke:#000000;stroke-width:0.75;stroke-linecap:butt;stroke-linejoin:round;stroke-miterlimit:10;stroke-dasharray:2.775, 1.2;stroke-dashoffset:0;stroke-opacity:0.75"
           id="path138" />
      </g>
    </g>
    <g
       id="g140">
      <g
         id="g142"
         clip-path="url(#clipPath146)">
        <path
           d="m 47.21625,74.415599 2.254546,-0.290181 2.254545,0.272732 2.254545,0.260204 2.254546,0.207125 2.254545,0.04771 2.254546,0.184243 2.254545,0.142962 2.254546,0.237407 2.254545,0.246502 2.254546,0.319131 2.254545,0.313987 2.254546,0.377374 2.254545,0.31073 2.254545,0.464472 2.254546,0.587686 2.254545,0.5874 2.254546,0.60527 2.254545,0.620467 2.254546,0.545664 2.254545,0.392548 2.254546,0.586649 2.254545,0.654749 2.254546,0.615001 2.254544,0.641501 2.25455,0.666068 2.25454,0.639921 2.25455,0.738192 2.25454,0.77 2.25455,0.678416 2.25454,0.70192 2.25455,0.714782 2.25455,0.706802 2.25454,0.584822 2.25455,0.483168 2.25454,0.534203 2.25455,0.529584 2.25454,0.482159 2.25455,0.478559 2.25454,0.461963 2.25455,0.469969 2.25454,0.550214 2.25455,0.565538 2.25454,0.528864 2.25455,0.546719 2.25455,0.632944 2.25454,0.606637 2.25455,0.558678 2.25454,0.536123 2.25455,0.584059 2.25454,0.558325 2.25455,0.54518 2.25454,0.478682 2.25455,0.489067 2.25454,0.48544 2.25455,0.46695 2.25455,0.46365 2.25454,0.45164 2.25455,0.45977 2.25454,0.49805 2.25455,0.494 2.25454,0.45541 2.25455,0.43302 2.25454,0.42942 2.25455,0.42243 2.25454,0.40464 2.25455,0.40841 2.25455,0.36479 2.25454,0.36061 2.25455,0.38594 2.25454,0.35572 2.25455,0.34708 2.25454,0.35266 2.25455,0.37935 2.25454,0.37883 2.25455,0.37508 2.25454,0.38539 2.25455,0.40113 2.25455,0.40615 2.25454,0.39586 2.25455,0.40036 2.25454,0.3811 2.25455,0.38379 2.25454,0.36996 2.25455,0.34206 2.25454,0.33712 2.25455,0.32776 2.25454,0.31224 2.25455,0.3139 2.25455,0.29117 2.25454,0.30733 2.25455,0.32977 2.25454,0.34285 2.25455,0.31333 2.25454,0.30651 2.25455,0.30756 2.25454,0.29662 2.25455,0.29997 2.25454,0.29795 2.25455,0.27078"
           style="fill:none;stroke:#000000;stroke-width:0.75;stroke-linecap:butt;stroke-linejoin:round;stroke-miterlimit:10;stroke-dasharray:2.775, 1.2;stroke-dashoffset:0;stroke-opacity:0.75"
           id="path148" />
      </g>
    </g>
    <g
       id="g150">
      <g
         id="g152"
         clip-path="url(#clipPath156)">
        <path
           d="m 47.21625,66.592 2.254546,-0.295697 2.254545,0.169567 2.254545,0.159934 2.254546,0.0056 2.254545,-0.239131 2.254546,-0.131879 2.254545,-0.209185 2.254546,-0.11232 2.254545,-0.107019 2.254546,-0.05342 2.254545,-0.0833 2.254546,-0.02771 2.254545,-0.160566 2.254545,0.09189 2.254546,0.298797 2.254545,0.268667 2.254546,0.283638 2.254545,0.323529 2.254546,0.165963 2.254545,-0.145223 2.254546,0.226129 2.254545,0.362568 2.254546,0.311871 2.254544,0.350218 2.25455,0.401208 2.25454,0.372267 2.25455,0.611071 2.25454,0.667575 2.25455,0.504458 2.25454,0.560487 2.25455,0.595205 2.25455,0.592258 2.25454,0.347609 2.25455,0.106333 2.25454,0.225594 2.25455,0.249691 2.25454,0.129164 2.25455,0.117766 2.25454,0.07834 2.25455,0.121952 2.25454,0.350627 2.25455,0.408212 2.25454,0.328562 2.25455,0.402278 2.25455,0.645563 2.25454,0.584029 2.25455,0.465652 2.25454,0.439025 2.25455,0.575508 2.25454,0.52089 2.25455,0.501442 2.25454,0.337828 2.25455,0.373902 2.25454,0.372347 2.25455,0.354381 2.25455,0.34558 2.25454,0.331982 2.25455,0.363592 2.25454,0.487661 2.25455,0.488154 2.25454,0.384645 2.25455,0.341339 2.25454,0.336227 2.25455,0.335058 2.25454,0.301545 2.25455,0.328002 2.25455,0.200923 2.25454,0.204683 2.25455,0.283319 2.25454,0.21325 2.25455,0.201479 2.25454,0.216823 2.25455,0.314185 2.25454,0.320033 2.25455,0.319587 2.25454,0.360991 2.25455,0.422853 2.25455,0.447749 2.25454,0.424862 2.25455,0.436169 2.25454,0.397207 2.25455,0.412085 2.25454,0.385381 2.25455,0.30449 2.25454,0.29361 2.25455,0.276885 2.25454,0.23934 2.25455,0.255857 2.25455,0.190989 2.25454,0.251066 2.25455,0.328412 2.25454,0.367478 2.25455,0.282991 2.25454,0.276859 2.25455,0.285107 2.25454,0.262166 2.25455,0.27684 2.25454,0.275674 2.25455,0.197447"
           style="fill:none;stroke:#000000;stroke-width:0.75;stroke-linecap:butt;stroke-linejoin:round;stroke-miterlimit:10;stroke-dasharray:2.775, 1.2;stroke-dashoffset:0;stroke-opacity:0.75"
           id="path158" />
      </g>
    </g>
    <g
       id="g160">
      <g
         id="g162"
         clip-path="url(#clipPath166)">
        <path
           d="m 47.21625,61.368379 2.254546,-0.25061 2.254545,0.110814 2.254545,0.129728 2.254546,-0.119738 2.254545,-0.400273 2.254546,-0.35209 2.254545,-0.414651 2.254546,-0.336197 2.254545,-0.319039 2.254546,-0.250692 2.254545,-0.340353 2.254546,-0.299245 2.254545,-0.465317 2.254545,-0.104201 2.254546,0.160406 2.254545,0.109662 2.254546,0.110143 2.254545,0.182844 2.254546,-0.07172 2.254545,-0.549489 2.254546,-0.03378 2.254545,0.204892 2.254546,0.142686 2.254544,0.17761 2.25455,0.242397 2.25454,0.223917 2.25455,0.639803 2.25454,0.679097 2.25455,0.451337 2.25454,0.530198 2.25455,0.592738 2.25455,0.5694 2.25454,0.215392 2.25455,-0.226822 2.25454,-0.0396 2.25455,0.0221 2.25454,-0.209599 2.25455,-0.241101 2.25454,-0.353914 2.25455,-0.252913 2.25454,0.166281 2.25455,0.282952 2.25454,0.12499 2.25455,0.30283 2.25455,0.742423 2.25454,0.652284 2.25455,0.413128 2.25454,0.37314 2.25455,0.637294 2.25454,0.549951 2.25455,0.497939 2.25454,0.21009 2.25455,0.266915 2.25454,0.237911 2.25455,0.251123 2.25455,0.227445 2.25454,0.208069 2.25455,0.247814 2.25454,0.521964 2.25455,0.535677 2.25454,0.30929 2.25455,0.232486 2.25454,0.232207 2.25455,0.224579 2.25454,0.201202 2.25455,0.235651 2.25455,-0.03811 2.25454,-0.02229 2.25455,0.129163 2.25454,9.2e-5 2.25455,-0.02035 2.25454,-0.0012 2.25455,0.226838 2.25454,0.233648 2.25455,0.241603 2.25454,0.322064 2.25455,0.489735 2.25455,0.550255 2.25454,0.5034 2.25455,0.512728 2.25454,0.44649 2.25455,0.472608 2.25454,0.444954 2.25455,0.239019 2.25454,0.222145 2.25455,0.19608 2.25454,0.117132 2.25455,0.160464 2.25455,0.01327 2.25454,0.152325 2.25455,0.332564 2.25454,0.424413 2.25455,0.233222 2.25454,0.224547 2.25455,0.238032 2.25454,0.208321 2.25455,0.231098 2.25454,0.23095 2.25455,0.05105"
           style="fill:none;stroke:#000000;stroke-width:0.75;stroke-linecap:butt;stroke-linejoin:round;stroke-miterlimit:10;stroke-dasharray:2.775, 1.2;stroke-dashoffset:0;stroke-opacity:0.75"
           id="path168" />
      </g>
    </g>
    <g
       id="g170">
      <g
         id="g172"
         clip-path="url(#clipPath176)">
        <path
           d="m 47.21625,57.712435 2.254546,-0.13352 2.254545,0.08355 2.254545,0.120828 2.254546,-0.195634 2.254545,-0.524079 2.254546,-0.503885 2.254545,-0.563604 2.254546,-0.502699 2.254545,-0.484659 2.254546,-0.376462 2.254545,-0.537154 2.254546,-0.504475 2.254545,-0.723114 2.254545,-0.213926 2.254546,0.05256 2.254545,0.0108 2.254546,0.02054 2.254545,0.06614 2.254546,-0.247264 2.254545,-0.901525 2.254546,-0.24172 2.254545,0.08001 2.254546,0.0194 2.254544,0.07585 2.25455,0.122865 2.25454,0.11063 2.25455,0.734244 2.25454,0.740606 2.25455,0.430603 2.25454,0.576799 2.25455,0.630109 2.25455,0.597318 2.25454,0.105856 2.25455,-0.517751 2.25454,-0.296098 2.25455,-0.186376 2.25454,-0.55164 2.25455,-0.61849 2.25454,-0.841164 2.25455,-0.662307 2.25454,-0.0269 2.25455,0.147409 2.25454,-0.09289 2.25455,0.218398 2.25455,0.901997 2.25454,0.778951 2.25455,0.398153 2.25454,0.318488 2.25455,0.74706 2.25454,0.618573 2.25455,0.52534 2.25454,0.08248 2.25455,0.150596 2.25454,0.0992 2.25455,0.125978 2.25455,0.09659 2.25454,0.07725 2.25455,0.114577 2.25454,0.600048 2.25455,0.622998 2.25454,0.214023 2.25455,0.09845 2.25454,0.113502 2.25455,0.08517 2.25454,0.08103 2.25455,0.118182 2.25455,-0.37542 2.25454,-0.354202 2.25455,-0.09338 2.25454,-0.31805 2.25455,-0.367787 2.25454,-0.348552 2.25455,0.09009 2.25454,0.103534 2.25455,0.116921 2.25454,0.270515 2.25455,0.627724 2.25455,0.737794 2.25454,0.653959 2.25455,0.660882 2.25454,0.546201 2.25455,0.580834 2.25454,0.552868 2.25455,0.140138 2.25454,0.10223 2.25455,0.07478 2.25454,-0.08325 2.25455,0.0043 2.25455,-0.290212 2.25454,-7.55e-4 2.25455,0.346928 2.25454,0.516396 2.25455,0.164931 2.25454,0.132459 2.25455,0.145397 2.25454,0.122444 2.25455,0.147954 2.25454,0.149926 2.25455,-0.22438"
           style="fill:none;stroke:#000000;stroke-width:0.75;stroke-linecap:butt;stroke-linejoin:round;stroke-miterlimit:10;stroke-dasharray:2.775, 1.2;stroke-dashoffset:0;stroke-opacity:0.75"
           id="path178" />
      </g>
    </g>
    <g
       id="g180">
      <g
         id="g182"
         clip-path="url(#clipPath186)">
        <path
           d="m 47.21625,126.13555 2.254546,9.56657 2.254545,7.85451 2.254545,6.04099 2.254546,4.6683 2.254545,3.66014 2.254546,2.92206 2.254545,2.36286 2.254546,1.93223 2.254545,1.59346 2.254546,1.32574 2.254545,1.10772 2.254546,0.93031 2.254545,0.78387 2.254545,0.66555 2.254546,0.56644 2.254545,0.48226 2.254546,0.41118 2.254545,0.35083 2.254546,0.29926 2.254545,0.25495 2.254546,0.21937 2.254545,0.18932 2.254546,0.16171 2.254544,0.13967 2.25455,0.12034 2.25454,0.10372 2.25455,0.0914 2.25454,0.0791 2.25455,0.0668 2.25454,0.0589 2.25455,0.0516 2.25455,0.0447 2.25454,0.0368 2.25455,0.0285 2.25454,0.0252 2.25455,0.0221 2.25454,0.0174 2.25455,0.0153 2.25454,0.0126 2.25455,0.0101 2.25454,0.0106 2.25455,0.009 2.25454,0.007 2.25455,0.007 2.25455,0.008 2.25454,0.008 2.25455,0.006 2.25454,0.005 2.25455,0.006 2.25454,0.006 2.25455,0.004 2.25454,0.002 2.25455,0.002 2.25454,0.002 2.25455,0.001 2.25455,0.001 2.25454,7.6e-4 2.25455,9.2e-4 2.25454,0.003 2.25455,0.003 2.25454,0.002 2.25455,8.9e-4 2.25454,7e-4 2.25455,2.9e-4 2.25454,2.4e-4 2.25455,-4.1e-4 2.25455,-0.002 2.25454,-0.002 2.25455,-10e-4 2.25454,-0.002 2.25455,-0.003 2.25454,-0.002 2.25455,-7.2e-4 2.25454,3.2e-4 2.25455,-5.6e-4 2.25454,1.5e-4 2.25455,0.002 2.25455,0.002 2.25454,0.003 2.25455,0.003 2.25454,0.002 2.25455,0.003 2.25454,0.002 2.25455,4e-5 2.25454,7e-4 2.25455,-1e-4 2.25454,-0.002 2.25455,-7.1e-4 2.25455,-0.002 2.25454,-0.002 2.25455,8.2e-4 2.25454,0.003 2.25455,7e-4 2.25454,-8e-5 2.25455,2e-4 2.25454,2e-4 2.25455,1.9e-4 2.25454,1.3e-4 2.25455,-0.001"
           style="fill:none;stroke:#000000;stroke-width:0.75;stroke-linecap:butt;stroke-linejoin:round;stroke-miterlimit:10;stroke-dasharray:2.775, 1.2;stroke-dashoffset:0;stroke-opacity:0.75"
           id="path188" />
      </g>
    </g>
    <g
       id="g190">
      <g
         id="g192"
         clip-path="url(#clipPath196)">
        <path
           d="m 47.21625,131.71683 2.254546,8.58516 2.254545,7.35497 2.254545,5.67893 2.254546,4.35449 2.254545,3.37222 2.254546,2.65259 2.254545,2.11065 2.254546,1.69645 2.254545,1.37391 2.254546,1.12203 2.254545,0.91951 2.254546,0.757 2.254545,0.62484 2.254545,0.51989 2.254546,0.43348 2.254545,0.36127 2.254546,0.30139 2.254545,0.25143 2.254546,0.20947 2.254545,0.17407 2.254546,0.14658 2.254545,0.12391 2.254546,0.10311 2.254544,0.0872 2.25455,0.0735 2.25454,0.0619 2.25455,0.0542 2.25454,0.046 2.25455,0.0374 2.25454,0.0328 2.25455,0.0285 2.25455,0.0243 2.25454,0.0188 2.25455,0.0126 2.25454,0.0111 2.25455,0.01 2.25454,0.007 2.25455,0.006 2.25454,0.004 2.25455,0.003 2.25454,0.004 2.25455,0.003 2.25454,0.002 2.25455,0.003 2.25455,0.005 2.25454,0.005 2.25455,0.003 2.25454,0.002 2.25455,0.004 2.25454,0.004 2.25455,0.003 2.25454,4e-4 2.25455,7.6e-4 2.25454,7.4e-4 2.25455,3.1e-4 2.25455,4.4e-4 h 2.25454 l 2.25455,2.7e-4 2.25454,0.002 2.25455,0.003 2.25454,0.001 2.25455,5.1e-4 2.25454,3.8e-4 h 2.25455 2.25454 l 2.25455,-6.3e-4 2.25455,-0.003 2.25454,-0.002 2.25455,-0.001 2.25454,-0.003 2.25455,-0.003 2.25454,-0.002 2.25455,-8e-4 2.25454,2.5e-4 2.25455,-6.2e-4 2.25454,10e-5 2.25455,0.002 2.25455,0.002 2.25454,0.002 2.25455,0.003 2.25454,0.002 2.25455,0.003 2.25454,0.002 2.25455,3e-5 2.25454,6.8e-4 2.25455,-1.1e-4 2.25454,-0.002 2.25455,-7.2e-4 2.25455,-0.002 2.25454,-0.002 2.25455,8.2e-4 2.25454,0.003 2.25455,7e-4 2.25454,-9e-5 2.25455,2e-4 2.25454,1.9e-4 2.25455,2e-4 2.25454,1.2e-4 2.25455,-0.001"
           style="fill:none;stroke:#000000;stroke-width:0.75;stroke-linecap:butt;stroke-linejoin:round;stroke-miterlimit:10;stroke-dasharray:2.775, 1.2;stroke-dashoffset:0;stroke-opacity:0.75"
           id="path198" />
      </g>
    </g>
    <g
       id="g200">
      <g
         id="g202"
         clip-path="url(#clipPath206)">
        <path
           d="m 47.21625,97.133051 2.254546,1.913451 2.254545,3.038488 2.254545,3.45281 2.254546,3.54514 2.254545,3.42082 2.254546,3.2827 2.254545,3.05757 2.254546,2.84785 2.254545,2.64176 2.254546,2.45464 2.254545,2.2725 2.254546,2.11325 2.254545,1.96174 2.254545,1.83933 2.254546,1.72572 2.254545,1.61702 2.254546,1.51695 2.254545,1.42557 2.254546,1.33939 2.254545,1.2588 2.254546,1.194 2.254545,1.13667 2.254546,1.07273 2.254544,1.02109 2.25455,0.97162 2.25454,0.92425 2.25455,0.8852 2.25454,0.84515 2.25455,0.8024 2.25454,0.76929 2.25455,0.73697 2.25455,0.70449 2.25454,0.67095 2.25455,0.63608 2.25454,0.61306 2.25455,0.5889 2.25454,0.56269 2.25455,0.54195 2.25454,0.52044 2.25455,0.50023 2.25454,0.4855 2.25455,0.46759 2.25454,0.44972 2.25455,0.43495 2.25455,0.42349 2.25454,0.409 2.25455,0.39275 2.25454,0.37776 2.25455,0.36834 2.25454,0.35547 2.25455,0.34211 2.25454,0.32771 2.25455,0.31782 2.25454,0.30737 2.25455,0.29674 2.25455,0.2875 2.25454,0.27772 2.25455,0.26934 2.25454,0.26371 2.25455,0.25651 2.25454,0.24621 2.25455,0.23762 2.25454,0.23022 2.25455,0.22279 2.25454,0.21591 2.25455,0.20868 2.25455,0.19985 2.25454,0.19447 2.25455,0.18961 2.25454,0.18249 2.25455,0.17657 2.25454,0.1722 2.25455,0.16892 2.25454,0.16527 2.25455,0.15959 2.25454,0.15583 2.25455,0.15394 2.25455,0.14982 2.25454,0.14571 2.25455,0.14244 2.25454,0.13719 2.25455,0.13415 2.25454,0.12967 2.25455,0.12374 2.25454,0.12098 2.25455,0.11674 2.25454,0.11176 2.25455,0.1097 2.25455,0.105 2.25454,0.10284 2.25455,0.10269 2.25454,0.10249 2.25455,0.0971 2.25454,0.0935 2.25455,0.0914 2.25454,0.0888 2.25455,0.0865 2.25454,0.0841 2.25455,0.08"
           style="fill:none;stroke:#000000;stroke-width:0.75;stroke-linecap:butt;stroke-linejoin:round;stroke-miterlimit:10;stroke-dasharray:2.775, 1.2;stroke-dashoffset:0;stroke-opacity:0.75"
           id="path208" />
      </g>
    </g>
    <g
       id="g210">
      <g
         id="g212"
         clip-path="url(#clipPath216)">
        <path
           d="m 47.21625,104.28052 2.254546,0.948 2.254545,2.05768 2.254545,2.57904 2.254546,2.82887 2.254545,2.86697 2.254546,2.85519 2.254545,2.73164 2.254546,2.59573 2.254545,2.44457 2.254546,2.29998 2.254545,2.14864 2.254546,2.01302 2.254545,1.87929 2.254545,1.76924 2.254546,1.66692 2.254545,1.56655 2.254546,1.47289 2.254545,1.38725 2.254546,1.30515 2.254545,1.22878 2.254546,1.16657 2.254545,1.11142 2.254546,1.04925 2.254544,0.99964 2.25455,0.95143 2.25454,0.90527 2.25455,0.86713 2.25454,0.82795 2.25455,0.7861 2.25454,0.75357 2.25455,0.72197 2.25455,0.68989 2.25454,0.65709 2.25455,0.62277 2.25454,0.60015 2.25455,0.57621 2.25454,0.55041 2.25455,0.52989 2.25454,0.50883 2.25455,0.48874 2.25454,0.47409 2.25455,0.45645 2.25454,0.43877 2.25455,0.42417 2.25455,0.41283 2.25454,0.39849 2.25455,0.38242 2.25454,0.36769 2.25455,0.35828 2.25454,0.34563 2.25455,0.33238 2.25454,0.31828 2.25455,0.30848 2.25454,0.29817 2.25455,0.28763 2.25455,0.27852 2.25454,0.26888 2.25455,0.26062 2.25454,0.25506 2.25455,0.24794 2.25454,0.23783 2.25455,0.22933 2.25454,0.22207 2.25455,0.21476 2.25454,0.20796 2.25455,0.20087 2.25455,0.19219 2.25454,0.18688 2.25455,0.18214 2.25454,0.17511 2.25455,0.16928 2.25454,0.16501 2.25455,0.16182 2.25454,0.15821 2.25455,0.15268 2.25454,0.14897 2.25455,0.14714 2.25455,0.14311 2.25454,0.13908 2.25455,0.13593 2.25454,0.13075 2.25455,0.12781 2.25454,0.12342 2.25455,0.11762 2.25454,0.11493 2.25455,0.11078 2.25454,0.10592 2.25455,0.10392 2.25455,0.0993 2.25454,0.0972 2.25455,0.0971 2.25454,0.097 2.25455,0.0917 2.25454,0.0882 2.25455,0.0861 2.25454,0.0837 2.25455,0.0814 2.25454,0.0791 2.25455,0.0751"
           style="fill:none;stroke:#000000;stroke-width:0.75;stroke-linecap:butt;stroke-linejoin:round;stroke-miterlimit:10;stroke-dasharray:2.775, 1.2;stroke-dashoffset:0;stroke-opacity:0.75"
           id="path218" />
      </g>
    </g>
    <g
       id="g220">
      <g
         id="g222"
         clip-path="url(#clipPath226)">
        <path
           d="m 47.21625,86.948438 2.254546,0.604666 2.254545,1.477276 2.254545,1.756415 2.254546,1.958914 2.254545,2.009672 2.254546,2.149059 2.254545,2.12509 2.254546,2.12422 2.254545,2.07849 2.254546,2.03146 2.254545,1.9535 2.254546,1.88174 2.254545,1.78799 2.254545,1.73979 2.254546,1.68162 2.254545,1.60952 2.254546,1.53738 2.254545,1.47097 2.254546,1.39685 2.254545,1.32332 2.254546,1.28394 2.254545,1.24947 2.254546,1.18672 2.254544,1.1479 2.25455,1.10736 2.25454,1.06352 2.25455,1.03658 2.25454,1.0027 2.25455,0.95639 2.25454,0.92886 2.25455,0.90031 2.25455,0.86817 2.25454,0.83047 2.25455,0.78842 2.25454,0.77187 2.25455,0.74824 2.25454,0.71971 2.25455,0.70071 2.25454,0.67911 2.25455,0.65933 2.25454,0.65 2.25455,0.63289 2.25454,0.61324 2.25455,0.59954 2.25455,0.59298 2.25454,0.57742 2.25455,0.55828 2.25454,0.54104 2.25455,0.53471 2.25454,0.52002 2.25455,0.50486 2.25454,0.48642 2.25455,0.47723 2.25454,0.46568 2.25455,0.45337 2.25455,0.44357 2.25454,0.43234 2.25455,0.42365 2.25454,0.41979 2.25455,0.41205 2.25454,0.39868 2.25455,0.38804 2.25454,0.37973 2.25455,0.37116 2.25454,0.3628 2.25455,0.35444 2.25455,0.34258 2.25454,0.33656 2.25455,0.33189 2.25454,0.32264 2.25455,0.31515 2.25454,0.3107 2.25455,0.30751 2.25454,0.30357 2.25455,0.29663 2.25454,0.29241 2.25455,0.29076 2.25455,0.286 2.25454,0.28058 2.25455,0.27667 2.25454,0.26948 2.25455,0.26583 2.25454,0.25965 2.25455,0.25142 2.25454,0.24765 2.25455,0.24187 2.25454,0.23518 2.25455,0.23245 2.25455,0.22574 2.25454,0.22329 2.25455,0.22362 2.25454,0.2234 2.25455,0.21565 2.25454,0.21061 2.25455,0.20767 2.25454,0.20395 2.25455,0.20066 2.25454,0.19736 2.25455,0.19111"
           style="fill:none;stroke:#000000;stroke-width:0.75;stroke-linecap:butt;stroke-linejoin:round;stroke-miterlimit:10;stroke-dasharray:2.775, 1.2;stroke-dashoffset:0;stroke-opacity:0.75"
           id="path228" />
      </g>
    </g>
    <g
       id="g230">
      <g
         id="g232"
         clip-path="url(#clipPath236)">
        <path
           d="m 47.21625,92.117326 2.254546,0.05664 2.254545,0.885609 2.254545,1.101454 2.254546,1.286237 2.254545,1.366336 2.254546,1.54611 2.254545,1.579669 2.254546,1.639989 2.254545,1.65052 2.254546,1.6629 2.254545,1.63391 2.254546,1.60794 2.254545,1.5493 2.254545,1.53477 2.254546,1.50842 2.254545,1.4595 2.254546,1.40782 2.254545,1.36097 2.254546,1.29837 2.254545,1.23756 2.254546,1.21196 2.254545,1.18925 2.254546,1.13177 2.254544,1.10257 2.25455,1.06831 2.25454,1.02938 2.25455,1.00906 2.25454,0.98032 2.25455,0.93568 2.25454,0.91191 2.25455,0.88726 2.25455,0.85691 2.25454,0.82079 2.25455,0.77844 2.25454,0.76571 2.25455,0.74301 2.25454,0.71571 2.25455,0.6981 2.25454,0.67824 2.25455,0.65909 2.25454,0.65188 2.25455,0.63648 2.25454,0.61676 2.25455,0.60411 2.25455,0.59972 2.25454,0.58446 2.25455,0.56532 2.25454,0.54827 2.25455,0.54309 2.25454,0.52873 2.25455,0.51379 2.25454,0.49499 2.25455,0.48648 2.25454,0.47529 2.25455,0.46278 2.25455,0.45347 2.25454,0.44222 2.25455,0.43398 2.25454,0.43104 2.25455,0.42341 2.25454,0.40989 2.25455,0.39888 2.25454,0.39102 2.25455,0.38228 2.25454,0.37399 2.25455,0.36578 2.25455,0.3536 2.25454,0.34752 2.25455,0.34353 2.25454,0.33397 2.25455,0.32627 2.25454,0.32225 2.25455,0.31939 2.25454,0.31552 2.25455,0.30876 2.25454,0.30464 2.25455,0.3032 2.25455,0.29866 2.25454,0.29313 2.25455,0.2894 2.25454,0.28185 2.25455,0.27854 2.25454,0.27206 2.25455,0.26364 2.25454,0.25975 2.25455,0.25394 2.25454,0.24712 2.25455,0.24438 2.25455,0.23741 2.25454,0.23517 2.25455,0.23589 2.25454,0.23576 2.25455,0.22778 2.25454,0.22258 2.25455,0.2197 2.25454,0.2158 2.25455,0.21261 2.25454,0.20923 2.25455,0.2027"
           style="fill:none;stroke:#000000;stroke-width:0.75;stroke-linecap:butt;stroke-linejoin:round;stroke-miterlimit:10;stroke-dasharray:2.775, 1.2;stroke-dashoffset:0;stroke-opacity:0.75"
           id="path238" />
      </g>
    </g>
    <g
       id="g240">
      <g
         id="g242"
         clip-path="url(#clipPath246)">
        <path
           d="m 47.21625,79.705443 2.254546,-0.01885 2.254545,0.928249 2.254545,1.060605 2.254546,1.183153 2.254545,1.178902 2.254546,1.378552 2.254545,1.390532 2.254546,1.476723 2.254545,1.501552 2.254546,1.535539 2.254545,1.52037 2.254546,1.510779 2.254545,1.450568 2.254545,1.48042 2.254546,1.478037 2.254545,1.437886 2.254546,1.39359 2.254545,1.35318 2.254546,1.28581 2.254545,1.21145 2.254546,1.21211 2.254545,1.20891 2.254546,1.14607 2.254544,1.12483 2.25455,1.0968 2.25454,1.05683 2.25455,1.05169 2.25454,1.02721 2.25455,0.97433 2.25454,0.95628 2.25455,0.93387 2.25455,0.90382 2.25454,0.85776 2.25455,0.80425 2.25454,0.79975 2.25455,0.77875 2.25454,0.74732 2.25455,0.73195 2.25454,0.71135 2.25455,0.69472 2.25454,0.69694 2.25455,0.68336 2.25454,0.66196 2.25455,0.65193 2.25455,0.65612 2.25454,0.64003 2.25455,0.61735 2.25454,0.59827 2.25455,0.59913 2.25454,0.5829 2.25455,0.567 2.25454,0.54261 2.25455,0.53649 2.25454,0.52496 2.25455,0.51182 2.25455,0.50271 2.25454,0.49094 2.25455,0.48369 2.25454,0.48505 2.25455,0.478 2.25454,0.46101 2.25455,0.44864 2.25454,0.44069 2.25455,0.43192 2.25454,0.42287 2.25455,0.4147 2.25455,0.39907 2.25454,0.39367 2.25455,0.39145 2.25454,0.38029 2.25455,0.3719 2.25454,0.36906 2.25455,0.3681 2.25454,0.36545 2.25455,0.35804 2.25454,0.35507 2.25455,0.35575 2.25455,0.35169 2.25454,0.34567 2.25455,0.34227 2.25454,0.3336 2.25455,0.33064 2.25454,0.32326 2.25455,0.31246 2.25454,0.30854 2.25455,0.30192 2.25454,0.29389 2.25455,0.29167 2.25455,0.28295 2.25454,0.28199 2.25455,0.28495 2.25454,0.28631 2.25455,0.27595 2.25454,0.27002 2.25455,0.26727 2.25454,0.26311 2.25455,0.25978 2.25454,0.25656 2.25455,0.24773"
           style="fill:none;stroke:#000000;stroke-width:0.75;stroke-linecap:butt;stroke-linejoin:round;stroke-miterlimit:10;stroke-dasharray:2.775, 1.2;stroke-dashoffset:0;stroke-opacity:0.75"
           id="path248" />
      </g>
    </g>
    <g
       id="g250">
      <g
         id="g252"
         clip-path="url(#clipPath256)">
        <path
           d="m 47.21625,81.626422 2.254546,-0.418885 2.254545,0.551206 2.254545,0.619699 2.254546,0.687334 2.254545,0.645739 2.254546,0.830935 2.254545,0.841798 2.254546,0.945386 2.254545,0.986218 2.254546,1.054797 2.254545,1.067728 2.254546,1.099859 2.254545,1.061713 2.254545,1.136251 2.254546,1.17678 2.254545,1.1615 2.254546,1.146635 2.254545,1.133376 2.254546,1.074919 2.254545,1.006813 2.254546,1.045807 2.254545,1.06736 2.254546,1.01022 2.254544,1.00842 2.25455,0.99341 2.25454,0.96076 2.25455,0.9764 2.25454,0.96465 2.25455,0.90853 2.25454,0.90061 2.25455,0.88666 2.25455,0.8616 2.25454,0.81102 2.25455,0.75047 2.25454,0.75866 2.25455,0.74052 2.25454,0.7088 2.25455,0.69769 2.25454,0.68025 2.25455,0.66637 2.25454,0.67934 2.25455,0.67104 2.25454,0.64791 2.25455,0.64212 2.25455,0.65683 2.25454,0.64076 2.25455,0.61609 2.25454,0.5962 2.25455,0.60356 2.25454,0.58711 2.25455,0.57201 2.25454,0.54296 2.25455,0.53968 2.25454,0.52957 2.25455,0.51552 2.25455,0.50805 2.25454,0.49606 2.25455,0.49062 2.25454,0.49716 2.25455,0.49065 2.25454,0.47154 2.25455,0.45756 2.25454,0.45118 2.25455,0.44175 2.25454,0.43258 2.25455,0.42534 2.25455,0.40719 2.25454,0.40167 2.25455,0.40317 2.25454,0.39003 2.25455,0.381 2.25454,0.38009 2.25455,0.38156 2.25454,0.37974 2.25455,0.37277 2.25454,0.37099 2.25455,0.37358 2.25455,0.3707 2.25454,0.36421 2.25455,0.36163 2.25454,0.35157 2.25455,0.35006 2.25454,0.3415 2.25455,0.32902 2.25454,0.32487 2.25455,0.31809 2.25454,0.30927 2.25455,0.30739 2.25455,0.29723 2.25454,0.29806 2.25455,0.30332 2.25454,0.30601 2.25455,0.2938 2.25454,0.28734 2.25455,0.28512 2.25454,0.2803 2.25455,0.27755 2.25454,0.27443 2.25455,0.26374"
           style="fill:none;stroke:#000000;stroke-width:0.75;stroke-linecap:butt;stroke-linejoin:round;stroke-miterlimit:10;stroke-dasharray:2.775, 1.2;stroke-dashoffset:0;stroke-opacity:0.75"
           id="path258" />
      </g>
    </g>
    <g
       id="g260">
      <g
         id="g262"
         clip-path="url(#clipPath266)">
        <path
           d="m 47.21625,73.63756 2.254546,-0.523282 2.254545,0.611399 2.254545,0.651958 2.254546,0.681838 2.254545,0.581114 2.254546,0.784499 2.254545,0.775937 2.254546,0.895603 2.254545,0.945251 2.254546,1.024668 2.254545,1.037882 2.254546,1.071914 2.254545,1.019053 2.254545,1.138159 2.254546,1.195366 2.254545,1.181252 2.254546,1.164618 2.254545,1.149927 2.254546,1.078734 2.254545,0.983939 2.254546,1.050535 2.254545,1.092432 2.254546,1.025661 2.254544,1.028374 2.25455,1.017144 2.25454,0.980026 2.25455,1.014301 2.25454,1.003137 2.25455,0.934811 2.25454,0.93219 2.25455,0.91798 2.25455,0.89139 2.25454,0.82524 2.25455,0.74807 2.25454,0.76466 2.25455,0.74892 2.25454,0.70976 2.25455,0.69975 2.25454,0.67973 2.25455,0.67022 2.25454,0.69536 2.25455,0.68867 2.25454,0.66317 2.25455,0.66069 2.25455,0.68645 2.25454,0.66863 2.25455,0.63813 2.25454,0.61588 2.25455,0.63071 2.25454,0.61127 2.25455,0.59447 2.25454,0.5577 2.25455,0.55728 2.25454,0.54609 2.25455,0.53165 2.25455,0.52389 2.25454,0.51146 2.25455,0.50704 2.25454,0.51949 2.25455,0.51365 2.25454,0.48916 2.25455,0.47378 2.25454,0.46684 2.25455,0.45794 2.25454,0.44774 2.25455,0.44067 2.25455,0.41733 2.25454,0.41321 2.25455,0.41661 2.25454,0.40181 2.25455,0.39207 2.25454,0.39244 2.25455,0.39671 2.25454,0.39668 2.25455,0.38873 2.25454,0.38873 2.25455,0.39445 2.25455,0.39221 2.25454,0.38522 2.25455,0.38285 2.25454,0.37185 2.25455,0.3704 2.25454,0.36117 2.25455,0.34527 2.25454,0.34116 2.25455,0.33349 2.25454,0.32315 2.25455,0.32222 2.25455,0.30975 2.25454,0.31257 2.25455,0.321 2.25454,0.32558 2.25455,0.31033 2.25454,0.30318 2.25455,0.30109 2.25454,0.29643 2.25455,0.29335 2.25454,0.29071 2.25455,0.27687"
           style="fill:none;stroke:#000000;stroke-width:0.75;stroke-linecap:butt;stroke-linejoin:round;stroke-miterlimit:10;stroke-dasharray:2.775, 1.2;stroke-dashoffset:0;stroke-opacity:0.75"
           id="path268" />
      </g>
    </g>
    <g
       id="g270">
      <g
         id="g272"
         clip-path="url(#clipPath276)">
        <path
           d="m 47.21625,72.664617 2.254546,-0.772265 2.254545,0.345626 2.254545,0.342448 2.254546,0.305532 2.254545,0.13482 2.254546,0.300818 2.254545,0.260526 2.254546,0.370018 2.254545,0.39718 2.254546,0.483266 2.254545,0.485948 2.254546,0.548152 2.254545,0.48183 2.254545,0.656823 2.254546,0.76701 2.254545,0.766674 2.254546,0.781124 2.254545,0.791396 2.254546,0.709708 2.254545,0.573671 2.254546,0.735806 2.254545,0.822604 2.254546,0.756403 2.254544,0.789259 2.25455,0.802745 2.25454,0.769545 2.25455,0.862402 2.25454,0.877771 2.25455,0.78519 2.25454,0.805919 2.25455,0.806583 2.25455,0.79144 2.25454,0.689221 2.25455,0.578448 2.25454,0.628733 2.25455,0.622218 2.25454,0.569612 2.25455,0.568463 2.25454,0.550304 2.25455,0.552219 2.25454,0.618078 2.25455,0.626367 2.25454,0.591658 2.25455,0.604077 2.25455,0.670429 2.25454,0.649053 2.25455,0.605241 2.25454,0.57812 2.25455,0.61868 2.25454,0.59444 2.25455,0.579 2.25454,0.51944 2.25455,0.52761 2.25454,0.52052 2.25455,0.50264 2.25455,0.49843 2.25454,0.48544 2.25455,0.48702 2.25454,0.52053 2.25455,0.51636 2.25454,0.47916 2.25455,0.45808 2.25454,0.45501 2.25455,0.44431 2.25454,0.43218 2.25455,0.42913 2.25455,0.39239 2.25454,0.38823 2.25455,0.40612 2.25454,0.38223 2.25455,0.37084 2.25454,0.37705 2.25455,0.39324 2.25454,0.39636 2.25455,0.38916 2.25454,0.39502 2.25455,0.40956 2.25455,0.41201 2.25454,0.4027 2.25455,0.40286 2.25454,0.38696 2.25455,0.38971 2.25454,0.37653 2.25455,0.35176 2.25454,0.34644 2.25455,0.3379 2.25454,0.32375 2.25455,0.32472 2.25455,0.30538 2.25454,0.31684 2.25455,0.33504 2.25454,0.34548 2.25455,0.32115 2.25454,0.31244 2.25455,0.31219 2.25454,0.30514 2.25455,0.30418 2.25454,0.30241 2.25455,0.27945"
           style="fill:none;stroke:#000000;stroke-width:0.75;stroke-linecap:butt;stroke-linejoin:round;stroke-miterlimit:10;stroke-dasharray:2.775, 1.2;stroke-dashoffset:0;stroke-opacity:0.75"
           id="path278" />
      </g>
    </g>
    <g
       id="g280">
      <g
         id="g282"
         clip-path="url(#clipPath286)">
        <path
           d="m 47.21625,68.74125 2.254546,-0.902386 2.254545,0.413492 2.254545,0.402866 2.254546,0.347938 2.254545,0.150479 2.254546,0.336347 2.254545,0.289267 2.254546,0.41232 2.254545,0.458407 2.254546,0.556027 2.254545,0.563176 2.254546,0.619854 2.254545,0.543423 2.254545,0.758696 2.254546,0.874193 2.254545,0.87465 2.254546,0.88135 2.254545,0.886538 2.254546,0.793557 2.254545,0.642141 2.254546,0.809432 2.254545,0.911711 2.254546,0.835309 2.254544,0.867881 2.25455,0.877337 2.25454,0.840057 2.25455,0.942408 2.25454,0.948747 2.25455,0.849207 2.25454,0.870991 2.25455,0.866569 2.25455,0.845458 2.25454,0.736528 2.25455,0.613057 2.25454,0.664204 2.25455,0.658578 2.25454,0.60052 2.25455,0.597328 2.25454,0.57529 2.25455,0.580626 2.25454,0.649924 2.25455,0.65606 2.25454,0.62128 2.25455,0.63397 2.25455,0.702155 2.25454,0.679648 2.25455,0.631753 2.25454,0.60375 2.25455,0.645427 2.25454,0.61884 2.25455,0.60061 2.25454,0.53825 2.25455,0.54759 2.25454,0.5372 2.25455,0.52025 2.25455,0.51467 2.25454,0.50118 2.25455,0.50181 2.25454,0.53712 2.25455,0.53315 2.25454,0.49222 2.25455,0.47127 2.25454,0.46622 2.25455,0.45699 2.25454,0.44459 2.25455,0.44025 2.25455,0.40031 2.25454,0.3985 2.25455,0.41375 2.25454,0.3914 2.25455,0.37924 2.25454,0.38533 2.25455,0.4013 2.25454,0.40601 2.25455,0.39711 2.25454,0.40342 2.25455,0.41964 2.25455,0.4213 2.25454,0.41212 2.25455,0.41136 2.25454,0.39611 2.25455,0.39738 2.25454,0.38494 2.25455,0.35808 2.25454,0.35312 2.25455,0.3439 2.25454,0.32894 2.25455,0.33069 2.25455,0.31036 2.25454,0.32179 2.25455,0.34117 2.25454,0.35183 2.25455,0.32671 2.25454,0.31753 2.25455,0.31665 2.25454,0.31112 2.25455,0.30864 2.25454,0.30724 2.25455,0.2829"
           style="fill:none;stroke:#000000;stroke-width:0.75;stroke-linecap:butt;stroke-linejoin:round;stroke-miterlimit:10;stroke-dasharray:2.775, 1.2;stroke-dashoffset:0;stroke-opacity:0.75"
           id="path288" />
      </g>
    </g>
    <g
       id="g290">
      <g
         id="g292"
         clip-path="url(#clipPath296)">
        <path
           d="m 47.21625,66.223603 2.254546,-0.903714 2.254545,0.221072 2.254545,0.193578 2.254546,0.06695 2.254545,-0.204826 2.254546,-0.06549 2.254545,-0.146079 2.254546,-0.04192 2.254545,-0.03768 2.254546,0.05042 2.254545,0.0098 2.254546,0.07814 2.254545,-0.05188 2.254545,0.229692 2.254546,0.403778 2.254545,0.397017 2.254546,0.426042 2.254545,0.441741 2.254546,0.302079 2.254545,0.01302 2.254546,0.355206 2.254545,0.519208 2.254546,0.434358 2.254544,0.497939 2.25455,0.544493 2.25454,0.49754 2.25455,0.72762 2.25454,0.775413 2.25455,0.609494 2.25454,0.67321 2.25455,0.68895 2.25455,0.688728 2.25454,0.467353 2.25455,0.247055 2.25454,0.362174 2.25455,0.380148 2.25454,0.2668 2.25455,0.271059 2.25454,0.236164 2.25455,0.274839 2.25454,0.458653 2.25455,0.501592 2.25454,0.434998 2.25455,0.49079 2.25455,0.679911 2.25454,0.640707 2.25455,0.542622 2.25454,0.501089 2.25455,0.618081 2.25454,0.571429 2.25455,0.553822 2.25454,0.416618 2.25455,0.446079 2.25454,0.444798 2.25455,0.418581 2.25455,0.417572 2.25454,0.403913 2.25455,0.420542 2.25454,0.523055 2.25455,0.523363 2.25454,0.432694 2.25455,0.396162 2.25454,0.398155 2.25455,0.385583 2.25454,0.364998 2.25455,0.373691 2.25455,0.282104 2.25454,0.280911 2.25455,0.341453 2.25454,0.287666 2.25455,0.271182 2.25454,0.291409 2.25455,0.352108 2.25454,0.365714 2.25455,0.35763 2.25454,0.38535 2.25455,0.4336 2.25455,0.450586 2.25454,0.432771 2.25455,0.437993 2.25454,0.408237 2.25455,0.419264 2.25454,0.39599 2.25455,0.334308 2.25454,0.323595 2.25455,0.31161 2.25454,0.282324 2.25455,0.291085 2.25455,0.244379 2.25454,0.288645 2.25455,0.342212 2.25454,0.371708 2.25455,0.313018 2.25454,0.299811 2.25455,0.303946 2.25454,0.291067 2.25455,0.295059 2.25454,0.296643 2.25455,0.23717"
           style="fill:none;stroke:#000000;stroke-width:0.75;stroke-linecap:butt;stroke-linejoin:round;stroke-miterlimit:10;stroke-dasharray:2.775, 1.2;stroke-dashoffset:0;stroke-opacity:0.75"
           id="path298" />
      </g>
    </g>
    <g
       id="g300">
      <g
         id="g302"
         clip-path="url(#clipPath306)">
        <path
           d="m 47.21625,57.712435 2.254546,-0.13352 2.254545,0.08355 2.254545,0.120828 2.254546,-0.195634 2.254545,-0.524079 2.254546,-0.503885 2.254545,-0.563604 2.254546,-0.502699 2.254545,-0.484659 2.254546,-0.376462 2.254545,-0.537154 2.254546,-0.504475 2.254545,-0.723114 2.254545,-0.213926 2.254546,0.05256 2.254545,0.0108 2.254546,0.02054 2.254545,0.06614 2.254546,-0.247264 2.254545,-0.901525 2.254546,-0.24172 2.254545,0.08001 2.254546,0.0194 2.254544,0.07585 2.25455,0.122865 2.25454,0.11063 2.25455,0.734244 2.25454,0.740606 2.25455,0.430603 2.25454,0.576799 2.25455,0.630109 2.25455,0.597318 2.25454,0.105856 2.25455,-0.517751 2.25454,-0.296098 2.25455,-0.186376 2.25454,-0.55164 2.25455,-0.61849 2.25454,-0.841164 2.25455,-0.662307 2.25454,-0.0269 2.25455,0.147409 2.25454,-0.09289 2.25455,0.218398 2.25455,0.901997 2.25454,0.778951 2.25455,0.398153 2.25454,0.318488 2.25455,0.74706 2.25454,0.618573 2.25455,0.52534 2.25454,0.08248 2.25455,0.150596 2.25454,0.0992 2.25455,0.125978 2.25455,0.09659 2.25454,0.07725 2.25455,0.114577 2.25454,0.600048 2.25455,0.622998 2.25454,0.214023 2.25455,0.09845 2.25454,0.113502 2.25455,0.08517 2.25454,0.08103 2.25455,0.118182 2.25455,-0.37542 2.25454,-0.354202 2.25455,-0.09338 2.25454,-0.31805 2.25455,-0.367787 2.25454,-0.348552 2.25455,0.09009 2.25454,0.103534 2.25455,0.116921 2.25454,0.270515 2.25455,0.627724 2.25455,0.737794 2.25454,0.653959 2.25455,0.660882 2.25454,0.546201 2.25455,0.580834 2.25454,0.552868 2.25455,0.140138 2.25454,0.10223 2.25455,0.07478 2.25454,-0.08325 2.25455,0.0043 2.25455,-0.290212 2.25454,-7.55e-4 2.25455,0.346928 2.25454,0.516396 2.25455,0.164931 2.25454,0.132459 2.25455,0.145397 2.25454,0.122444 2.25455,0.147954 2.25454,0.149926 2.25455,-0.22438"
           style="fill:none;stroke:#ff0000;stroke-width:1.5;stroke-linecap:square;stroke-linejoin:round;stroke-miterlimit:10;stroke-dasharray:none;stroke-opacity:1"
           id="path308" />
      </g>
    </g>
    <g
       id="g310">
      <path
         d="M 47.21625,37.018317 V 203.33832"
         style="fill:none;stroke:#000000;stroke-width:0.8;stroke-linecap:square;stroke-linejoin:miter;stroke-miterlimit:10;stroke-dasharray:none;stroke-opacity:1"
         id="path312" />
      <path
         d="M 270.41625,37.018317 V 203.33832"
         style="fill:none;stroke:#000000;stroke-width:0.8;stroke-linecap:square;stroke-linejoin:miter;stroke-miterlimit:10;stroke-dasharray:none;stroke-opacity:1"
         id="path314" />
      <path
         d="m 47.21625,37.018317 h 223.2"
         style="fill:none;stroke:#000000;stroke-width:0.8;stroke-linecap:square;stroke-linejoin:miter;stroke-miterlimit:10;stroke-dasharray:none;stroke-opacity:1"
         id="path316" />
      <path
         d="m 47.21625,203.33832 h 223.2"
         style="fill:none;stroke:#000000;stroke-width:0.8;stroke-linecap:square;stroke-linejoin:miter;stroke-miterlimit:10;stroke-dasharray:none;stroke-opacity:1"
         id="path318" />
      <text
         xml:space="preserve"
         transform="matrix(1,0,0,-1,61.482954,209.33832)"
         style="font-variant:normal;font-weight:normal;font-size:11.9552px;font-family:'Computer Modern';-inkscape-font-specification:CMR12;writing-mode:lr-tb;fill:#000000;fill-opacity:1;fill-rule:nonzero;stroke:none"
         id="text322"><tspan
           x="0 10.723785 16.895029 23.386686 28.587183 35.729027 40.343723 45.54422 48.784073 53.98457 59.185066 63.728031 66.96788 72.813957 83.207611 86.782204 92.628281 101.07324 109.84834 113.08818 118.93426 125.42592 128.66577 135.15742 144.25992 153.19043 156.43028 163.2471 168.4476 174.93925 179.48222 182.72206 189.21373"
           y="0"
           id="tspan320">ModelselectionforAlanineDipeptide</tspan></text>
      <path
         d="m 56.21625,190.83832 h 10 10"
         style="fill:none;stroke:#ff0000;stroke-width:1.5;stroke-linecap:square;stroke-linejoin:round;stroke-miterlimit:10;stroke-dasharray:none;stroke-opacity:1"
         id="path324" />
      <text
         xml:space="preserve"
         transform="matrix(1,0,0,-1,84.21625,187.33832)"
         style="font-variant:normal;font-weight:normal;font-size:9.96264px;font-family:'Computer Modern';-inkscape-font-specification:CMR10;writing-mode:lr-tb;fill:#000000;fill-opacity:1;fill-rule:nonzero;stroke:none"
         id="text328"><tspan
           x="0 7.0535493 11.476961 15.402242 22.588621 27.012033 30.937313 34.802818 37.562469 45.861347 50.842667 54.708172 59.689491"
           y="0"
           id="tspan326">Bestestimator</tspan></text>
    </g>
  </g>
</svg>
